<?xml version="1.0" encoding="utf-8"?>
<!-- Generator: Adobe Illustrator 18.0.0, SVG Export Plug-In . SVG Version: 6.00 Build 0)  -->
<!DOCTYPE svg PUBLIC "-//W3C//DTD SVG 1.1//EN" "http://www.w3.org/Graphics/SVG/1.1/DTD/svg11.dtd" [
	<!ENTITY ns_flows "http://ns.adobe.com/Flows/1.0/">
	<!ENTITY ns_extend "http://ns.adobe.com/Extensibility/1.0/">
	<!ENTITY ns_ai "http://ns.adobe.com/AdobeIllustrator/10.0/">
	<!ENTITY ns_graphs "http://ns.adobe.com/Graphs/1.0/">
]>
<svg version="1.1" id="Layer_1" xmlns:x="&ns_extend;" xmlns:i="&ns_ai;" xmlns:graph="&ns_graphs;"
	 xmlns="http://www.w3.org/2000/svg" xmlns:xlink="http://www.w3.org/1999/xlink" xmlns:a="http://ns.adobe.com/AdobeSVGViewerExtensions/3.0/"
	 x="0px" y="0px" viewBox="0 0 1400 980" enable-background="new 0 0 1400 980" xml:space="preserve">
<g>
	<g>
		<g>
			<g>
				<rect fill="#EBE7E6" width="1400" height="980"/>
			</g>
		</g>
	</g>
	<polygon fill="#EFEFEF" points="113.5,696 66,149.1 1335.7,84.5 1314.5,684.2 	"/>
	<g>
		<rect y="787.3" fill="#C0D6D7" width="1400" height="192.7"/>
	</g>
	<g>
		<g>
			<g>
				<g>
					<polygon fill="#AEC1C3" points="1282.4,878.8 1272.1,880.8 1272.1,880.8 					"/>
				</g>
				<g>
					<polygon fill="#AEC1C3" points="1063.6,919.8 1272.1,880.8 735,911.6 					"/>
				</g>
				<g>
					<polygon fill="#AEC1C3" points="1323.3,790 55.7,790 47.7,813 512.4,859 44,826.6 234,899.2 234,899.2 585,907.9 1340.6,867.9 
						1282.4,878.8 1370.6,862.3 					"/>
				</g>
			</g>
		</g>
	</g>
	<g>
		<g>
			<g>
				<rect x="631.6" y="242.4" fill="#D1CECE" width="199.8" height="186.9"/>
			</g>
			<g>
				<rect x="871.5" y="242.4" fill="#D1CECE" width="279.8" height="186.9"/>
			</g>
			<g>
				<circle fill="#D1CECE" cx="1263.9" cy="245.3" r="63.9"/>
			</g>
		</g>
	</g>
	<g>
		<polygon fill="#C0D6D7" points="185.3,183.4 185.3,821.9 209.9,821.9 209.9,204.5 522.4,204.5 522.4,821.9 547,821.9 547,183.4 		
			"/>
		<rect x="209.9" y="204.5" fill="#B7ACAA" width="312.4" height="592.6"/>
		<g>
			<rect x="33.5" y="227.9" fill="#88CBCC" width="176.4" height="569.1"/>
			<rect x="33.5" y="227.9" fill="#7CBABB" width="18.4" height="569.1"/>
			<g>
				<ellipse fill="#D2A730" cx="64.1" cy="517" rx="4" ry="12.6"/>
				<rect x="64.1" y="512.8" fill="#D2A730" width="20.1" height="8.5"/>
				<g>
					<ellipse fill="#F0D234" cx="84.2" cy="517" rx="12.5" ry="19.8"/>
					<ellipse fill="#F0E573" cx="80" cy="511.7" rx="4.6" ry="7.3"/>
				</g>
			</g>
		</g>
		<polygon fill="#A49B99" points="289.3,797 248.3,343 472.1,294.3 464.1,797 		"/>
	</g>
	<g>
		<g>
			<g>
				<path fill="#FDCEA1" d="M460.7,474.8l20.3,71.8c0,0-9.3,12.2-16.1,13.1c-6.8,0.9-35.5-64.7-35.5-64.7S448,472.4,460.7,474.8z"/>
			</g>
			<g>
				<polygon fill="#BBBDDF" points="428.2,408 464.1,474.8 424.1,500.1 403,475.6 				"/>
			</g>
			<g>
				<path fill="#535652" d="M375.5,820.2c0,0,18.5,3.8,30.4,6.5c12,2.7,11.4,12,11.4,12s-1.6,7.1-26.6,6.5
					c-25-0.5-27.7-7.6-34.2-9.2s-7.6,2.2-11.4-1.6c-3.8-3.8,3.3-15.2,3.3-15.2L375.5,820.2z"/>
			</g>
			<g>
				<path fill="#535652" d="M321.7,822.5c0,0,18.1,5.4,29.8,9.1c11.7,3.7,10.3,12.9,10.3,12.9s-2.2,6.9-27.1,4.2
					c-24.9-2.7-27-10-33.3-12.1c-6.4-2.2-7.8,1.5-11.2-2.6c-3.5-4.1,4.6-14.9,4.6-14.9L321.7,822.5z"/>
			</g>
			<g>
				<path fill="#BBBDDF" d="M400.5,591.4L383,822.9c0,0-10.1,11.4-38-0.8l4.8-179.3L328.9,827c0,0-18.6,12.2-39.7-2.4l-3.6-237.2
					L400.5,591.4z"/>
			</g>
			<g>
				<g>
					<polygon fill="#D4DEF1" points="363,368 428.2,408 402.1,596.2 405.4,636.1 376.9,655.7 361.4,636.9 339.4,659.8 272.3,626.5 
						285.8,590.6 287.2,411.2 293.7,385.2 345.1,366.4 					"/>
				</g>
				<polygon fill="#E2E9F6" points="360.8,367.8 345.1,366.4 293.7,385.2 287.2,411.2 285.8,590.6 272.3,626.5 339.4,659.8 
					361.4,636.9 364.7,453.1 				"/>
			</g>
			<g>
				<path fill="#BBBDDF" d="M292.1,386l-46.5,89.7l55.4,17.9l24.5-72.6C325.5,421,332,382.7,292.1,386z"/>
			</g>
			<polygon fill="#06B0D8" points="337.8,372.9 343.7,358.4 373.7,358.2 384.7,378.4 368.9,449.4 364.3,454.4 			"/>
			<path fill="#231F20" d="M363.9,400l-0.2-3.8l-6.1,1.6l-3.3,28.3l1,6.1l9.4,21l1.9-3.1l2.9-13.2C367.6,423.1,363.9,400,363.9,400z
				"/>
			<path fill="#E9F7FE" d="M338.1,369l26.9,85.2c0,0-29.8-27.1-32.8-37.3c-2.9-10.2,3.7-21,3.7-21s-8.6-7.4-10-13.3
				C324.4,376.7,338.1,369,338.1,369z"/>
			<path fill="#E9F7FE" d="M364.7,453.1l18.9-80.5c0,0,11.1,15.9,9.3,24.5c-1.8,8.5-5.8,6.2-5.8,6.2s6.7,7.6,5.7,21.6
				C391.8,438.9,364.7,453.1,364.7,453.1z"/>
			<polygon fill="#231F20" points="356.8,380.5 349.7,391.7 358.8,402.5 364.5,403.8 369.4,392.7 363.5,380.3 			"/>
			<g>
				<g>
					<path fill="#EFBB95" d="M349.8,330.5l22.2,35.1v19.6c0,0-20.6,9.8-29.6-11.3c-4.3-13.6-0.5-44.2-0.5-44.2L349.8,330.5z"/>
				</g>
			</g>
			<g>
				<path fill="#231F20" d="M344.7,350.1l-11.7-9.2l4.2-53.5l6.4-7.1l5,3.2l4.6-12c0,0,47.4-1.1,49.2-1.1c1.8,0,22.3,12.7,22.3,12.7
					l-5.3,40.4L407.7,337L344.7,350.1z"/>
			</g>
			<g>
				<g>
					<path fill="#FDCEA1" d="M405.7,291.6l-34.2-3.5l-9.7,6.9l-8.4,16.7c0,0-1.6-6.6-11.2-4.1c-9.6,2.5-7.8,23-3.1,24.3
						c4.7,1.3,7.1,0.8,7.1,0.8s-5.5,16.4,3.4,31c8.9,14.7,40.4,13.6,40.4,13.6s12.7-10,20.2-35.9
						C417.8,315.4,405.7,291.6,405.7,291.6z"/>
				</g>
			</g>
			<g>
				<g>
					<path fill="#231F20" d="M389.7,363.8c0.4-0.1,0.7-0.6,0.6-1l0,0c-0.1-0.4-0.5-0.7-1-0.6l0,0c-2.1,0.5-3.9,0.8-5.6,0.8l0,0
						c-11,0-14.4-10.1-14.5-10.1l0,0c-0.1-0.4-0.6-0.7-1-0.5l0,0c-0.4,0.1-0.7,0.6-0.5,1l0,0c0,0.1,3.8,11.2,16,11.2l0,0
						C385.5,364.6,387.5,364.3,389.7,363.8L389.7,363.8z"/>
				</g>
			</g>
			<g>
				<g>
					<path fill="#231F20" d="M364.3,354.5c5.4-0.6,6.5-3.9,6.4-5.5l0,0c0-0.5-0.1-0.8-0.1-0.9l0,0h0c-0.1-0.4-0.5-0.7-1-0.6l0,0
						c-0.4,0.1-0.7,0.5-0.6,1l0,0c0,0,0,0.2,0,0.5l0,0c-0.1,1-0.2,3.2-4.9,3.8l0,0c-0.4,0.1-0.8,0.5-0.7,0.9l0,0
						C363.4,354.2,363.8,354.5,364.3,354.5L364.3,354.5C364.2,354.5,364.3,354.5,364.3,354.5L364.3,354.5z"/>
				</g>
			</g>
		</g>
		<g>
			<path fill="#FDCEA1" d="M288,483.8l-7.1,16.3l38.6,15.2l54.3,33.7l23.9-3.8l19.6-0.5c0,0,0.5,8.2-3.3,8.7
				c-3.8,0.5-10.9,2.2-10.9,2.2l14.7,10.3l13.6,3.8l3.3,4.9l-34.8,6l-27.7-15.2c0,0-116.8-46.2-122.3-51.1
				c-5.4-4.9,4.3-38.6,4.3-38.6L288,483.8z"/>
		</g>
		<g>
			<path fill="#231F20" d="M356.4,294.2c0,0,8.8,10.3,22.3,12.4c13.5,2.1,15.9,2.1,15.9,2.1l-5.7-3.9c0,0,12.4-0.4,18.1-0.4
				c5.7,0,7.8-5.3,7.8-5.3l-19.5-18.4c0,0-20.9-1.4-26.2-0.4C363.8,281.4,356.4,294.2,356.4,294.2z"/>
		</g>
		<g>
			<path fill="#231F20" d="M365.3,313.6c0,0,5.3-2.1,10.6,0c5.3,2.1,7.1,3.5,7.1,3.5s2.1-1.4,0.4-4.2
				C381.5,310.1,373.4,308,365.3,313.6z"/>
		</g>
		<g>
			<path fill="#231F20" d="M414.9,324.6c0,0-3.9-4.2-9.6-4.6c-5.7-0.4-7.9,0.2-7.9,0.2s-1.3-2.2,1.5-4
				C401.7,314.4,409.9,316,414.9,324.6z"/>
		</g>
		<g>
			<path fill="#231F20" d="M402.3,340.6c-1.1,0-1.9-0.5-1.9-1.1c0-0.6,0.9-1.1,1.9-1.1c0.6,0,1.1,0.2,1.5,0.5c0-0.3,0.1-0.6,0.1-1
				c0-2.8-1.1-5.1-2.5-5.1s-2.5,2.3-2.5,5.1c0,2.8,1.1,5.1,2.5,5.1c0.9,0,1.7-1.1,2.2-2.8C403.2,340.4,402.7,340.6,402.3,340.6z"/>
		</g>
		<g>
			<path fill="#231F20" d="M377.1,334.9c-1.1,0-2-0.5-2-1.1c0-0.6,0.9-1.1,2-1.1c0.6,0,1.1,0.2,1.5,0.5c0-0.3,0.1-0.6,0.1-1
				c0-2.8-1.1-5.1-2.5-5.1c-1.4,0-2.5,2.3-2.5,5.1c0,2.8,1.1,5.1,2.5,5.1c0.9,0,1.7-1.1,2.2-2.8
				C378.1,334.8,377.6,334.9,377.1,334.9z"/>
		</g>
		<path fill="#E76A4C" d="M490,500.2l-120.1,30.2l3.3,18.1l0.7,0.5l23.9-3.8l19.6-0.5c0,0,0.5,8.2-3.3,8.7
			c-3.8,0.5-10.9,2.2-10.9,2.2l14.7,10.3l13.6,3.8l3.3,4.9l-34.8,6l-23.3-12.8l6.4,35.3l153.1-27.9L490,500.2z"/>
	</g>
	<g>
		<polygon fill="#B8B1AB" points="858.1,656.7 849.5,724.9 834.2,724.9 842.7,655.3 		"/>
		<polygon fill="#8B8682" points="842.6,655.8 842.7,655.3 858.1,656.7 849.5,724.9 844.3,724.9 853,656.7 		"/>
		<polygon fill="#B8B1AB" points="762.8,656.7 754.1,724.9 738.9,724.9 747.3,655.3 		"/>
		<polygon fill="#8B8682" points="747.2,655.8 747.3,655.3 762.8,656.7 754.1,724.9 748.9,724.9 757.6,656.7 		"/>
		<g>
			<path fill="#8B8682" d="M697.7,839.3c-2-0.5-3.3-2.5-2.8-4.5l0,0l21.9-91.9c0.4-1.7,1.9-2.9,3.6-2.9l0,0h55.6
				c1.7,0,3.1,1.1,3.6,2.7l0,0l26.9,91.9c0.6,2-0.6,4.1-2.5,4.7l0,0c-2,0.6-4.1-0.6-4.7-2.5l0,0l-26.1-89.2h-49.9l-21.2,89
				c-0.4,1.7-1.9,2.9-3.6,2.9l0,0C698.3,839.4,698,839.4,697.7,839.3L697.7,839.3z"/>
		</g>
		<g>
			<path fill="#B8B1AB" d="M868.3,839.3c2-0.5,3.3-2.5,2.8-4.5l0,0l-21.9-91.9c-0.4-1.7-1.9-2.9-3.6-2.9l0,0h-55.6
				c-1.7,0-3.1,1.1-3.6,2.7l0,0l-26.9,91.9c-0.6,2,0.6,4.1,2.5,4.7l0,0c2,0.6,4.1-0.6,4.7-2.5l0,0l26.1-89.2h49.9l21.2,89
				c0.4,1.7,1.9,2.9,3.6,2.9l0,0C867.7,839.4,868,839.4,868.3,839.3L868.3,839.3z"/>
		</g>
		<rect x="697.4" y="733.1" fill="#B8B1AB" width="165.7" height="9.1"/>
		<path fill="#C54C54" d="M687,736.4c1.2-8,8.1-14.1,16.4-14.1h145.8c8.3,0,15.2,6.1,16.4,14.1H687z"/>
		<path fill="#F15E67" d="M703.4,722.3h131.4c8.3,0,15.2,6.1,16.4,14.1H687C688.2,728.4,695.1,722.3,703.4,722.3z"/>
		<path fill="#B8B1AB" d="M870.6,607.9c1.2-0.2,12.9,7,12.9,7l-8,46.9h-17.6L870.6,607.9z"/>
		<path fill="#C54C54" d="M738,611.8c1.7-6.8,7.9-11.6,14.9-11.6h115.3c9.1,0,10.3,3.5,10.3,3.5l-9.6,62.1H744.2
			c-10,0-17.3-9.4-14.9-19.1L738,611.8z"/>
		<path fill="#F15E67" d="M853.8,600.2c9.1,0,10.3,3.5,10.3,3.5l-9.6,62.1H744.2c-10,0-17.3-9.4-14.9-19.1l8.7-34.9
			c1.7-6.8,7.9-11.6,14.9-11.6H853.8z"/>
	</g>
	<g>
		<g>
			<polygon fill="#B8B1AB" points="1081.8,656.7 1073.1,724.9 1057.8,724.9 1066.3,655.3 			"/>
			<polygon fill="#8B8682" points="1066.2,655.8 1066.3,655.3 1081.8,656.7 1073.1,724.9 1067.9,724.9 1076.6,656.7 			"/>
			<polygon fill="#B8B1AB" points="986.4,656.7 977.7,724.9 962.5,724.9 970.9,655.3 			"/>
			<polygon fill="#8B8682" points="970.9,655.8 970.9,655.3 986.4,656.7 977.7,724.9 972.6,724.9 981.2,656.7 			"/>
			<g>
				<path fill="#8B8682" d="M921.4,839.3c-2-0.5-3.3-2.5-2.8-4.5l0,0l21.9-91.9c0.4-1.7,1.9-2.9,3.6-2.9l0,0h55.6
					c1.7,0,3.1,1.1,3.6,2.7l0,0l26.9,91.9c0.6,2-0.6,4.1-2.5,4.7l0,0c-2,0.6-4.1-0.6-4.7-2.5l0,0L997,747.5h-49.9l-21.2,89
					c-0.4,1.7-1.9,2.9-3.6,2.9l0,0C922,839.4,921.7,839.4,921.4,839.3L921.4,839.3z"/>
			</g>
			<g>
				<path fill="#B8B1AB" d="M1091.9,839.3c2-0.5,3.3-2.5,2.8-4.5l0,0l-21.9-91.9c-0.4-1.7-1.9-2.9-3.6-2.9l0,0h-55.6
					c-1.7,0-3.1,1.1-3.6,2.7l0,0l-26.9,91.9c-0.6,2,0.6,4.1,2.5,4.7l0,0c2,0.6,4.1-0.6,4.7-2.5l0,0l26.1-89.2h49.9l21.2,89
					c0.4,1.7,1.9,2.9,3.6,2.9l0,0C1091.3,839.4,1091.6,839.4,1091.9,839.3L1091.9,839.3z"/>
			</g>
			<rect x="921" y="733.1" fill="#B8B1AB" width="165.7" height="9.1"/>
			<path fill="#C54C54" d="M910.6,736.4c1.2-8,8.1-14.1,16.4-14.1h145.8c8.3,0,15.2,6.1,16.4,14.1H910.6z"/>
			<path fill="#F15E67" d="M927,722.3h131.4c8.3,0,15.2,6.1,16.4,14.1H910.6C911.8,728.4,918.7,722.3,927,722.3z"/>
			<path fill="#B8B1AB" d="M1094.2,607.9c1.2-0.2,12.9,7,12.9,7l-8,46.9h-17.6L1094.2,607.9z"/>
			<path fill="#C54C54" d="M961.6,611.8c1.7-6.8,7.9-11.6,14.9-11.6h115.3c9.1,0,10.3,3.5,10.3,3.5l-9.6,62.1H967.8
				c-10,0-17.3-9.4-14.9-19.1L961.6,611.8z"/>
			<path fill="#F15E67" d="M1077.5,600.2c9.1,0,10.3,3.5,10.3,3.5l-9.6,62.1H967.8c-10,0-17.3-9.4-14.9-19.1l8.7-34.9
				c1.7-6.8,7.9-11.6,14.9-11.6H1077.5z"/>
		</g>
		<g>
			<path fill="#3B6BB4" d="M969.8,754.7c0,0-3.9,9.7-6.7,12.9c-2.8,3.2-13.3,10.1-18.6,9.4c-5.3-0.7-7.1-5.8-3.7-9.4
				c3.5-3.7,10.6-10.1,10.6-10.1l8.1-14.5L969.8,754.7z"/>
			<path fill="#3B6BB4" d="M935,745.5c0,0-3.9,9.7-6.7,12.9c-2.8,3.2-13.3,10.1-18.6,9.4c-5.3-0.7-7.1-5.8-3.7-9.4
				c3.5-3.7,10.6-10.1,10.6-10.1l8.1-14.5L935,745.5z"/>
			<path fill="#85ABDA" d="M972.8,751.3c0,0,0.9,5.8-3.5,7.1c-4.4,1.4-15.9-4.8-15.6-7.8c0.3-3,2.6-5.1,4.1-5.1
				C959.3,745.5,972.8,751.3,972.8,751.3z"/>
			<path fill="#85ABDA" d="M935.5,746.5c0,0,0.9,5.8-3.5,7.1c-4.4,1.4-15.9-4.8-15.6-7.8c0.3-3,2.6-5.1,4.1-5.1
				C922,740.7,935.5,746.5,935.5,746.5z"/>
			<path fill="#AFE0E5" d="M1000.2,704.6c0,0,2.1,10.8-4.4,16.8c-6.4,6-40.7,6.2-43.5,8c-2.8,1.8-15.2,17.3-18.6,20.5
				c-3.5,3.2-13.6-5.3-14.7-8.5c-1.2-3.2,9.7-27.8,14.5-32.9c4.8-5.1,21.4-6.7,21.4-6.7L1000.2,704.6z"/>
			<path fill="#A1C6D7" d="M931.4,747.6c3-4.4,13.3-23.2,26.5-27.4c13.1-4.1,16.8-16.3,16.8-16.3s0.8-0.3,2.2-0.7l23.4,1.4
				c0,0,2.1,10.8-4.4,16.8c-6.4,6-40.7,6.2-43.5,8c-2.8,1.8-15.2,17.3-18.6,20.5c-0.9,0.8-2.2,0.9-3.7,0.4
				C930.2,749.6,930.6,748.7,931.4,747.6z"/>
			<path fill="#AFE0E5" d="M1038.4,708.7c0,0,2.1,10.8-4.4,16.8c-6.4,6-40.7,6.2-43.5,8.1c-2.8,1.8-15.2,17.3-18.6,20.5
				c-3.5,3.2-13.6-5.3-14.7-8.5c-1.2-3.2,9.7-27.8,14.5-32.9c4.8-5.1,21.4-6.7,21.4-6.7L1038.4,708.7z"/>
			<path fill="#26477C" d="M964.5,705.7c0,0-12-2.1-13.3-6.2c-1.4-4.1,14-14.7,16.8-23.9c2.8-9.2,3.2-26.7,7.4-31.8
				c4.1-5.1,11.3-3.5,12.4-3C988.9,641.3,964.5,705.7,964.5,705.7z"/>
			<path fill="#FDCEA1" d="M966.3,701.8c0,0-7.6-3.8-13.5-3.8c-5.9,0-8.3,0-9,4.5c-0.7,4.5,10.7,6.6,16.2,5.2
				C965.7,706.3,966.3,701.8,966.3,701.8z"/>
			<path fill="#3B6BB4" d="M1043.2,648.2c-11-13.8-32-3.7-41-6c-9-2.3-16.6-1.6-20,0c-3.5,1.6-12,18.4-14.5,37.1
				c-2.5,18.6-3.2,18-5.3,21.9c-2.1,3.9,1.1,6,1.8,6.4c0.7,0.5,68.1,5.5,72,5.3c3.9-0.2,3.7-7.8,3.7-8.5
				C1040,703.7,1048.7,656.5,1043.2,648.2z"/>
			<path fill="#26477C" d="M1030.3,706c0-0.7,8.7-47.9,3.2-56.2c-11-13.8-32-3.7-41-6c-3.9-1-7.5-1.4-10.6-1.5
				c0.1-0.1,0.2-0.1,0.2-0.1c3.5-1.6,11-2.3,20,0c9,2.3,29.9-7.8,41,6c5.5,8.3-3.2,55.5-3.2,56.2c0,0.7,0.2,8.3-3.7,8.5
				c-0.7,0-3.3-0.1-7.1-0.3C1030.4,710.2,1030.3,706.4,1030.3,706z"/>
			<path fill="#3B6BB4" d="M1021.8,632.8c0,0,6.7-3.9,9.9-0.7c3.2,3.2,1.2,4.1,1.4,9.4c0.2,5.3-21.4,11.3-35.4,8.3
				c-14-3-16.3-4.4-14-8.5c2.3-4.1,1.6-6,1.6-9.2c0-3.2,3.9,0,9.9,1.4C1001.1,634.8,1021.8,632.8,1021.8,632.8z"/>
			<path fill="#26477C" d="M988.3,646.4c13.6,4.6,35.8,1.2,36.2-4.1c0.4-5.3,2.6-6-0.3-9.5c-0.3-0.3-0.6-0.6-0.9-0.8
				c2.2-0.9,6.1-2.2,8.4,0.1c3.2,3.2,1.2,4.1,1.4,9.4c0.2,5.3-21.4,11.3-35.4,8.3c-9.5-2-13.6-3.3-14.6-5.2
				C984.6,645.1,986.3,645.7,988.3,646.4z"/>
			<path fill="#FDCEA1" d="M999.5,714c0,0-4.4,7.8-12,8.3c-7.6,0.5-10.1-4.1-9.4-6.9c0.7-2.8,5.1-4.1,5.1-4.1s-4.6,1.6-5.5-0.5
				c-0.9-2.1,3-4.1,6-3.9c3,0.2,9.4,0.2,9.4,0.2S999,708,999.5,714z"/>
			<path fill="#3B6BB4" d="M1034.5,646.8c0,0,9.7-3.5,12.4,9.4c2.8,12.9-14,42.3-16.6,46.3c-2.5,3.9-28.1,14.3-29.5,14.5
				c-1.4,0.2-9.2-5.5-9.4-10.1c-0.2-4.6,26.2-14.3,26.2-14.3S1025.9,652.3,1034.5,646.8z"/>
			<path fill="#26477C" d="M997.4,714c1.4-0.2,26.9-10.6,29.5-14.5c2.5-3.9,19.3-33.4,16.6-46.3c-0.6-2.7-1.4-4.6-2.5-6.1
				c2.4,1.1,4.7,3.6,5.9,9.1c2.8,12.9-14,42.3-16.6,46.3c-2.5,3.9-28.1,14.3-29.5,14.5c-0.8,0.1-3.8-1.8-6.2-4.3
				C995.9,713.6,997,714.1,997.4,714z"/>
			<path fill="#CF6028" d="M1037.7,616.4c0,0,9.9-7.8,14.3-23.9c4.4-16.1,5.3-33.6-5.8-46c-5.5-6.2-15.7-10.5-23.8-11.5
				c-8.3-1.1-17.3-0.7-25.4-2.3c-11.3-2.3-3.3-10.5-4.6-17.9c-6.8,2.9-13.2,12.9-16.6,19c-6.6,11.9-9.6,28.6-1.2,40.6
				C975.1,575,1037.7,616.4,1037.7,616.4z"/>
			<path fill="#FDCEA1" d="M976,560.6c0,0-12.8,42.1-4.1,58.7c8.6,16.6,42.1,25.2,54.5,15.2c12.4-10,13.5-19.7,13.5-19.7
				s10,3.8,13.5-5.5c3.5-9.3,0.3-15.2-3.8-16.9c-4.1-1.7-7.3,2.4-7.3,2.4s-0.7,7.6-2.4,7.9c-1.7,0.3-4.1-1.4-4.1-2.4
				c0-1,2.8-15.5,2.8-15.5s-42.8-3.4-48.3-20.7C990.2,564.1,978.8,564.4,976,560.6z"/>
			<path fill="#231F20" d="M994.4,624.6l-12.4-1.5c0,0,1.5-3.5,7.4-3.1C995.3,620.4,994.4,624.6,994.4,624.6z"/>
			<path fill="#231F20" d="M978,591.3c1.2,0,2.2-0.9,2.2-2c0-1.1-1-2-2.2-2c-0.3,0-0.5,0-0.7,0.1c0.5-1.2,1.4-2,2.4-2
				c1.7,0,3,2.1,3,4.6c0,2.5-1.3,4.6-3,4.6c-1.5,0-2.7-1.6-2.9-3.8C977.1,591.2,977.5,591.3,978,591.3z"/>
			<path fill="#231F20" d="M1005.8,595c1.2,0,2.2-0.9,2.2-2c0-1.1-1-2-2.2-2c-0.3,0-0.5,0-0.7,0.1c0.5-1.2,1.4-2,2.4-2
				c1.7,0,3,2.1,3,4.6c0,2.5-1.3,4.6-3,4.6c-1.5,0-2.7-1.6-2.9-3.8C1004.9,594.9,1005.4,595,1005.8,595z"/>
			<path fill="#CF6028" d="M973.1,571.8l6.6-5.6l5.6,10.6l7.9-7.6l7.3,9.8l10,0.1l13.6,10.1l9.4-3.7l3.3,8.3l10.4-20.8
				c0,0-15.2-12.8-22.3-12.4c-7.2,0.4-51.8-7.6-51.8-7.6V571.8z"/>
		</g>
	</g>
	<g>
		<g>
			<rect x="630.8" y="230.7" fill="#FFFFFF" width="199.8" height="186.9"/>
			<rect x="646.3" y="250.4" fill="#DCDBDB" width="168.7" height="146"/>
			<rect x="646.3" y="250.4" fill="#C3C3C3" width="21.7" height="146"/>
		</g>
		<g>
			<rect x="870.7" y="230.7" fill="#FFFFFF" width="279.8" height="186.9"/>
			<rect x="886.3" y="250.4" fill="#DCDBDB" width="248.6" height="146"/>
			<rect x="886.3" y="250.4" fill="#C3C3C3" width="21.7" height="146"/>
		</g>
		<g>
			<path fill="#A13922" d="M756.2,370.9c-3-4.7-11.4-8.2-11.4-14.3c0-9.6,6.6-14.1,6.6-14.1h-20.7H710c0,0,6.6,4.5,6.6,14.1
				c0,6.1-8.4,9.6-11.4,14.3c-4,6.2-3.9,17.8,2.8,22.3c6.1,4,15.8,3.2,22.7,3.2c6.9,0,16.6,0.9,22.7-3.2
				C760.1,388.7,760.2,377.1,756.2,370.9z"/>
			<path fill="#6DA546" d="M719.6,342.5c0,0,1.1-24.5-6.8-36.3c0,0,15.8,11.4,16.7,36.3H719.6z"/>
			<path fill="#6DA546" d="M727,342.5c0,0,1.1-43.9-6.8-64.9c0,0,15.8,20.5,16.7,64.9H727z"/>
			<path fill="#6DA546" d="M743.8,342.5c0,0-1.1-21.5,6.8-31.8c0,0-15.8,10-16.7,31.8H743.8z"/>
		</g>
		<g>
			<rect x="936.8" y="305.1" fill="#DE4598" width="29.5" height="91.3"/>
			<rect x="936.8" y="333.3" fill="#F8F18E" width="29.5" height="5.2"/>
			<rect x="936.8" y="350.8" fill="#F8F18E" width="29.5" height="5.2"/>
		</g>
		<g>
			<rect x="966.3" y="305.1" fill="#F1886D" width="29.5" height="91.3"/>
			<rect x="966.3" y="320.2" fill="#F8F18E" width="29.5" height="5.2"/>
			<rect x="966.3" y="376.4" fill="#F8F18E" width="29.5" height="5.2"/>
		</g>
		<g>
			<rect x="904.8" y="305.1" fill="#F1886D" width="29.5" height="91.3"/>
			<rect x="904.8" y="320.2" fill="#F8F18E" width="29.5" height="5.2"/>
			<rect x="904.8" y="376.4" fill="#F8F18E" width="29.5" height="5.2"/>
		</g>
		<g>
			<rect x="1002.2" y="366.5" fill="#DE4598" width="91.3" height="29.5"/>
			<rect x="1030.3" y="366.5" fill="#F8F18E" width="5.2" height="29.5"/>
			<rect x="1047.8" y="366.5" fill="#F8F18E" width="5.2" height="29.5"/>
		</g>
		<g>
			<rect x="1002.2" y="336.9" fill="#F1886D" width="91.3" height="29.5"/>
			<rect x="1017.3" y="336.9" fill="#F8F18E" width="5.2" height="29.5"/>
			<rect x="1073.4" y="336.9" fill="#F8F18E" width="5.2" height="29.5"/>
		</g>
	</g>
	<g>
		<circle fill="#C3C3C3" cx="1263.1" cy="236" r="63.9"/>
		<g>
			<g>
				<g>
					<circle fill="#FFFEFE" cx="1263.1" cy="236" r="58.6"/>
				</g>
			</g>
		</g>
		<circle fill="#6C8885" cx="1263.1" cy="236" r="5.6"/>
		<rect x="1261.8" y="202.4" fill="#6C8885" width="2.5" height="33.7"/>
		
			<rect x="1277.9" y="230" transform="matrix(-0.7501 0.6613 -0.6613 -0.7501 2406.8945 -400.7715)" fill="#6C8885" width="2.5" height="48.7"/>
		<rect x="1262.4" y="181.4" fill="#6C8885" width="1.3" height="11"/>
		<rect x="1306.7" y="235.4" fill="#6C8885" width="11" height="1.3"/>
		<rect x="1262.4" y="279.7" fill="#6C8885" width="1.3" height="11"/>
		<rect x="1208.4" y="235.4" fill="#6C8885" width="11" height="1.3"/>
	</g>
	<g>
		<g>
			<rect x="780.8" fill="#7F9F9C" width="7.9" height="53.6"/>
			<rect x="1131.5" fill="#7F9F9C" width="7.9" height="53.6"/>
			<polygon fill="#7F9F9C" points="1180.6,53.6 964.4,53.6 748.3,53.6 729.5,89.4 964.4,89.4 1199.4,89.4 			"/>
			<rect x="762.2" y="76.4" fill="#FFFEFE" width="404.5" height="13"/>
		</g>
		<defs>
			<filter id="Adobe_OpacityMaskFilter" filterUnits="userSpaceOnUse" x="627.7" y="89.4" width="675.1" height="254.9">
				<feColorMatrix  type="matrix" values="1 0 0 0 0  0 1 0 0 0  0 0 1 0 0  0 0 0 1 0"/>
			</filter>
		</defs>
		<mask maskUnits="userSpaceOnUse" x="627.7" y="89.4" width="675.1" height="254.9" id="SVGID_1_">
			<g filter="url(#Adobe_OpacityMaskFilter)">
				<linearGradient id="SVGID_2_" gradientUnits="userSpaceOnUse" x1="965.2181" y1="-264.3718" x2="965.2181" y2="276.1342">
					<stop  offset="0" style="stop-color:#FFFFFF"/>
					<stop  offset="1" style="stop-color:#000000"/>
					<a:midPointStop  offset="0" style="stop-color:#FFFFFF"/>
					<a:midPointStop  offset="0.5" style="stop-color:#FFFFFF"/>
					<a:midPointStop  offset="1" style="stop-color:#000000"/>
				</linearGradient>
				<polygon fill="url(#SVGID_2_)" points="1199.4,89.4 729.5,89.4 627.7,344.3 1302.8,344.3 				"/>
			</g>
		</mask>
		<polygon mask="url(#SVGID_1_)" fill="#FFFFFF"  a:adobe-blending-mode="overlay" points="1199.4,89.4 729.5,89.4 627.7,344.3 
			1302.8,344.3 		"/>
	</g>
	<g>
		<g>
			<polygon fill="#B8B1AB" points="1306,656.7 1297.3,724.9 1282,724.9 1290.5,655.3 			"/>
			<polygon fill="#8B8682" points="1290.4,655.8 1290.5,655.3 1306,656.7 1297.3,724.9 1292.1,724.9 1300.8,656.7 			"/>
			<polygon fill="#B8B1AB" points="1210.6,656.7 1201.9,724.9 1186.7,724.9 1195.1,655.3 			"/>
			<polygon fill="#8B8682" points="1195.1,655.8 1195.1,655.3 1210.6,656.7 1201.9,724.9 1196.8,724.9 1205.4,656.7 			"/>
			<g>
				<path fill="#8B8682" d="M1145.6,839.3c-2-0.5-3.3-2.5-2.8-4.5l0,0l21.9-91.9c0.4-1.7,1.9-2.9,3.6-2.9l0,0h55.6
					c1.7,0,3.1,1.1,3.6,2.7l0,0l26.9,91.9c0.6,2-0.6,4.1-2.5,4.7l0,0c-2,0.6-4.1-0.6-4.7-2.5l0,0l-26.1-89.2h-49.9l-21.2,89
					c-0.4,1.7-1.9,2.9-3.6,2.9l0,0C1146.1,839.4,1145.9,839.4,1145.6,839.3L1145.6,839.3z"/>
			</g>
			<g>
				<path fill="#B8B1AB" d="M1316.1,839.3c2-0.5,3.3-2.5,2.8-4.5l0,0l-21.9-91.9c-0.4-1.7-1.9-2.9-3.6-2.9l0,0h-55.6
					c-1.7,0-3.1,1.1-3.6,2.7l0,0l-26.9,91.9c-0.6,2,0.6,4.1,2.5,4.7l0,0c2,0.6,4.1-0.6,4.7-2.5l0,0l26.1-89.2h49.9l21.2,89
					c0.4,1.7,1.9,2.9,3.6,2.9l0,0C1315.5,839.4,1315.8,839.4,1316.1,839.3L1316.1,839.3z"/>
			</g>
			<rect x="1145.2" y="733.1" fill="#B8B1AB" width="165.7" height="9.1"/>
			<path fill="#C54C54" d="M1134.8,736.4c1.2-8,8.1-14.1,16.4-14.1H1297c8.3,0,15.2,6.1,16.4,14.1H1134.8z"/>
			<path fill="#F15E67" d="M1151.2,722.3h131.4c8.3,0,15.2,6.1,16.4,14.1h-164.3C1136,728.4,1142.9,722.3,1151.2,722.3z"/>
			<path fill="#B8B1AB" d="M1318.4,607.9c1.2-0.2,12.9,7,12.9,7l-8,46.9h-17.6L1318.4,607.9z"/>
			<path fill="#C54C54" d="M1185.8,611.8c1.7-6.8,7.9-11.6,14.9-11.6H1316c9.1,0,10.3,3.5,10.3,3.5l-9.6,62.1H1192
				c-10,0-17.3-9.4-14.9-19.1L1185.8,611.8z"/>
			<path fill="#F15E67" d="M1301.7,600.2c9.1,0,10.3,3.5,10.3,3.5l-9.6,62.1H1192c-10,0-17.3-9.4-14.9-19.1l8.7-34.9
				c1.7-6.8,7.9-11.6,14.9-11.6H1301.7z"/>
		</g>
		<g>
			<path fill="#722D15" d="M1296.3,659.5c0.6-0.2,1.1-0.4,1.7-0.6c4.1-1.4,11.4-2.2,14.5-5c-13.3-5.5-18.3-26.5-20.3-39.2
				c-2.4-15.2-5-30.4-6.5-45.7c-1.3-13.9,0.3-28.5-5-41.7c-5.6-14.1-17.5-25-32.2-29.2c-16.5-4.7-33.9-0.2-48.9,7.2
				c-9.9,4.9-14.9,11.5-13,28.4l2-7.8c2.3-9,21.2,1.9,24,3.6c11.9,7.2,19.3,19.1,23.5,32.1c2,6.3,2.7,12.7,5.4,18.9
				c3.1,7.1,5.9,14.4,9,21.5c5.8,13.2,8,27.5,13.1,41c1.6,4.3,4.4,8.5,6.5,12.6c2.8,5.5,9.5,6.9,15.2,6.3
				C1288.9,661.5,1292.8,660.6,1296.3,659.5z"/>
			<path fill="#1A0B11" d="M1231.9,805.7c0,0-5.2,12.9-8.9,17.2c-3.7,4.3-17.8,13.5-24.9,12.6c-7.1-0.9-9.5-7.7-4.9-12.6
				c4.6-4.9,14.2-13.5,14.2-13.5l10.8-19.4L1231.9,805.7z"/>
			<path fill="#1A0B11" d="M1196,803.9c0,0-5.2,12.9-8.9,17.2c-3.7,4.3-17.8,13.5-24.9,12.6c-7.1-0.9-9.5-7.7-4.9-12.6
				c4.6-4.9,14.2-13.5,14.2-13.5l10.8-19.4L1196,803.9z"/>
			<path fill="#FDCEA1" d="M1173.5,714.3c0,0-11.8,3.6-11.2,13.5c0.7,9.9,23.3,6.2,25.3,1.6c2-4.6,0.3-5.9,1.6-7.6
				c1.3-1.6,3.6,0.3,3.6-6.9C1192.8,707.7,1173.5,714.3,1173.5,714.3z"/>
			<path fill="#834C9E" d="M1191.5,700.7c0,0-17.7,21.2-21.2,38.4c-3.4,17.2-3.4,58.2,0,64.7c3.4,6.4,27.6,5.4,28.6,3
				c1-2.5,3.4-52.3,3.4-52.3s29.6-45.8,29.6-47.3C1231.9,705.6,1191.5,700.7,1191.5,700.7z"/>
			<path fill="#6B3B81" d="M1191.5,700.7c0,0-0.2,0.2-0.5,0.6c10.8,1.4,35.5,4.6,35.5,5.8c0,1.5-29.6,47.3-29.6,47.3
				s-2.5,49.9-3.4,52.3c-0.4,0.9-3.9,1.6-8.4,1.8c6.7,0.3,13.3-0.6,13.8-1.8c1-2.5,3.4-52.3,3.4-52.3s29.6-45.8,29.6-47.3
				C1231.9,705.6,1191.5,700.7,1191.5,700.7z"/>
			<path fill="#834C9E" d="M1229.9,700.7c0,0-17.7,21.2-21.2,38.4c-3.4,17.2-3.4,58.2,0,64.7c3.4,6.4,27.6,5.4,28.6,3
				c1-2.5,3.4-52.3,3.4-52.3s29.6-45.8,29.6-47.3C1270.3,705.6,1229.9,700.7,1229.9,700.7z"/>
			<path fill="#6B3B81" d="M1229.9,700.7c0,0-0.2,0.3-0.6,0.8c11.3,1.5,34.1,4.5,34.1,5.6c0,1.5-29.6,47.3-29.6,47.3
				s-2.5,49.9-3.4,52.3c-0.3,0.9-3.5,1.5-7.7,1.8c7,0.4,14.1-0.5,14.6-1.8c1-2.5,3.4-52.3,3.4-52.3s29.6-45.8,29.6-47.3
				C1270.3,705.6,1229.9,700.7,1229.9,700.7z"/>
			<path fill="#FDCEA1" d="M1260.5,714.3c0,0-11.8,3.6-11.2,13.5c0.7,9.9,23.3,6.2,25.3,1.6c2-4.6,0.3-5.9,1.6-7.6
				c1.3-1.6,3.6,0.3,3.6-6.9C1279.8,707.7,1260.5,714.3,1260.5,714.3z"/>
			<g>
				<path fill="#620F64" d="M1169,640.6c0.7-18.2,1.8-35.8,18.9-36.2c17.1-0.3,6.2,101,6.2,104.3c0,3.3-16.7,7.2-21.7,3.9
					C1167.6,709.4,1168.4,658.8,1169,640.6z"/>
			</g>
			<path fill="#8E2C91" d="M1263.6,604.4c0,0-0.7-16.7-11.6-18.2c-10.9-1.5-48.3,1.1-58.8,3.3c-10.5,2.2-5.4,14.9-5.4,14.9
				s-10.9,2.2-11.3,11.6c-0.4,9.4-5.8,62.8,2.9,86c8.7,23.2,80.6,9.8,87.5,5.1c6.9-4.7,3.6-88.2,3.6-94
				C1270.5,607.4,1263.6,604.4,1263.6,604.4z"/>
			<path fill="#620F64" d="M1266.9,707.2c-1.9,1.3-8.5,3.2-17.4,4.9c0.4-12.8,1.7-49.7,1-69.5c-0.7-20.7,8.7-21.1,7.6-26.1
				c-1.1-5.1-12.7-5.8-12.7-5.8s9.1-0.4,9.4-7.3c0.4-6.9-12-16.3-12-16.3c-0.2-0.4-0.3-0.8-0.5-1.2c4,0,7.3,0.1,9.5,0.4
				c10.9,1.5,11.6,18.2,11.6,18.2s6.9,2.9,6.9,8.7C1270.5,619,1273.8,702.5,1266.9,707.2z M1219.7,601.9c0,0,0.7,1.8,0.4,3.6
				c-0.4,1.8-10.9,4.4-12.7,19.6c-1.7,14.2,0.1,71.3,5.9,90.2c-12.9-0.3-24.7-2.5-30.7-8.4c9,2.5,21.5,5.4,21.5,2.4
				c0-4.7-1.8-64.3-0.7-85.3C1204.4,603,1219.7,601.9,1219.7,601.9z"/>
			<path fill="#FDCEA1" d="M1193.5,521.6c0,0-20.8,46,1.5,73.1c22.3,27.1,60,0,62.9-19.8c0,0,16,9.2,16.9-9.7
				c1-18.9-14.5-14-14.5-14l-10.7-3.4c0,0-5.8-18.9-6.3-20.3c-0.5-1.5-9.9,2.7-21.5,2.7c-11.6,0-23.2-8.7-23.2-8.7L1193.5,521.6z"/>
			<g>
				<path fill="#8E2C91" d="M1251.3,634.2c0,0-2.6-22,14.4-22.3c17.1-0.3,13.1,98.5,13.1,101.8c0,3.3-16.7,7.2-21.7,3.9
					C1252.3,714.3,1251.3,634.2,1251.3,634.2z"/>
				<path fill="#620F64" d="M1265.7,611.8c-2.5,0-4.5,0.6-6.2,1.4c0.3,0,0.6-0.1,1-0.1c17.1-0.3,13.1,98.5,13.1,101.8
					c0,1.1-2,2.4-4.9,3.3c5.3-0.9,10.2-2.9,10.2-4.6C1278.9,710.3,1282.8,611.5,1265.7,611.8z"/>
			</g>
			<path fill="#231F20" d="M1214.5,588l-12.4-1.5c0,0,1.5-3.5,7.4-3.1C1215.4,583.8,1214.5,588,1214.5,588z"/>
			<path fill="#231F20" d="M1198.1,554.7c1.2,0,2.2-0.9,2.2-2c0-1.1-1-2-2.2-2c-0.3,0-0.5,0-0.7,0.1c0.5-1.2,1.4-2,2.4-2
				c1.7,0,3,2.1,3,4.6c0,2.5-1.3,4.6-3,4.6c-1.5,0-2.7-1.6-2.9-3.8C1197.2,554.6,1197.6,554.7,1198.1,554.7z"/>
			<path fill="#231F20" d="M1225.9,558.4c1.2,0,2.2-0.9,2.2-2c0-1.1-1-2-2.2-2c-0.3,0-0.5,0-0.7,0.1c0.5-1.2,1.4-2,2.4-2
				c1.7,0,3,2.1,3,4.6c0,2.5-1.3,4.6-3,4.6c-1.5,0-2.7-1.6-2.9-3.8C1225.1,558.3,1225.5,558.4,1225.9,558.4z"/>
			<path fill="#722D15" d="M1261.5,543.5c-4.6-16-16.2-25.3-32.1-28.9c-11.4-2.6-32.6-9.9-41.1,1.1c-5.9,7.7-5.8,26.3-2.8,34.6
				c-0.1-3.7,6-17.3,8.6-19.8c2.4,8.2,11,11.9,18.3,14.7c4.1,1.5,8.3,1.9,12.5,2.7c4.7,0.9,8.9,2.9,13.2,4.8
				c6.5,2.8,10.7,5.4,13.7,12.1c2.9,6.4,5.2,13.2,7,19.9c2.1-5.5,4.1-10.8,4.1-16.8C1263,559.8,1263.8,551.4,1261.5,543.5z"/>
		</g>
	</g>
	<g>
		<rect x="185.3" y="80.1" fill="#C0D6D7" width="361.7" height="75"/>
		<rect x="207.3" y="97.1" fill="#B7ACAA" width="318.1" height="42"/>
		<rect x="207.3" y="97.1" fill="#A49B99" width="25.1" height="42"/>
	</g>
	<g>
		<path fill="#04723B" d="M608.4,671.9c0,0-14.7,3.8-18.8,20.3c-4.1,16.6-11.7,48.2-7.9,57.7c3.8,9.4,18.5,18.1,23.7,16.6
			c5.3-1.5,6-17,6-18.5C611.5,746.5,608.4,671.9,608.4,671.9z"/>
		<path fill="#231F20" d="M631.8,870.5c0,0,1.5,6.5-3.8,6.5c-5.3,0-9-1.5-13.1-0.5c-4,1-3.8,6.5-3.8,6.5h29.6v-10L631.8,870.5z"/>
		<path fill="#231F20" d="M663.5,870.5c0,0-1.5,6.5,3.8,6.5c5.3,0,9-1.5,13.1-0.5c4,1,3.8,6.5,3.8,6.5h-29.6v-10L663.5,870.5z"/>
		<path fill="#A87D50" d="M605.4,766.5c0,0,21.9,103.2,25.2,106.3c3.4,3,13.2,2.6,13.2,2.6l-1.1-72.3c0,0,8.3,73.5,10.9,73.5
			c2.6,0,12.1,0.8,13.9-0.4c1.9-1.1,20.3-95.3,20.3-101.7C688,768,605.4,766.5,605.4,766.5z"/>
		<path fill="#8A5E3C" d="M623.2,767l-14.4,3.3c0,0,23,16.6,62.9,13.9c0,0-7,79.5-8.8,92.5c1.8,0.1,3.5,0.1,4.6-0.6
			c1.9-1.1,20.3-95.3,20.3-101.7C688,769.9,647.5,767.8,623.2,767z M636.6,874.9c3.6,0.6,7.3,0.4,7.3,0.4l-1.1-72.3L636.6,874.9z"/>
		<path fill="#028141" d="M688.7,667.4c0,0-0.8-17.3-12.1-18.8c-11.3-1.5-50.1,1.1-61,3.4c-10.9,2.3-5.7,15.4-5.7,15.4
			s-11.3,2.3-11.7,12.1c-0.4,9.8-6,65.2,3,89.3c9,24.1,83.6,10.2,90.8,5.3c7.2-4.9,3.8-91.6,3.8-97.6
			C695.9,670.4,688.7,667.4,688.7,667.4z"/>
		<path fill="#04723B" d="M695.9,676.4c0-6-7.2-9-7.2-9s-0.8-17.3-12.1-18.8c-2.3-0.3-5.8-0.4-9.9-0.4c0.2,0.4,0.3,0.8,0.5,1.2
			c0,0,12.8,9.8,12.4,17c-0.4,7.2-9.8,7.5-9.8,7.5s12.1,0.8,13.2,6c1.1,5.3-8.7,5.7-7.9,27.1c0.7,20.5-0.6,58.8-1.1,72.1
			c9.2-1.7,16.1-3.7,18-5C699.3,769.1,695.9,682.4,695.9,676.4z M626.2,687.7c-1.1,21.9,0.8,83.6,0.8,88.5c0,3.1-13,0.1-22.3-2.5
			c6.2,6.1,18.4,8.4,31.8,8.7c-6.1-19.6-7.9-78.8-6.2-93.6c1.9-15.8,12.8-18.5,13.2-20.3c0.4-1.9-0.4-3.8-0.4-3.8
			S627.3,665.9,626.2,687.7z"/>
		<path fill="#06B0D8" d="M592.6,567.1c0,0,61.8-39.9,101-32c39.2,7.9,17.3,24.9,17.3,24.9s12.8-6,4.9-17.7
			C707.9,530.6,657.4,519.3,592.6,567.1z"/>
		<path fill="#231F20" d="M615.5,592.6c0,0-7-7.3-7.3-11.3c-0.3-4-4.3-17.1,11.6-21.9c15.8-4.8,41.7,10,51.2,10c9.5,0,13.6-1,16.6,0
			c3,1,4,6.5,4,6.5s11.6-0.2,10.6,11.6c-1,11.8-9.8,47-14.3,54.5c-4.5,7.5-8,7.8-9,7.8C677.8,649.9,615.5,592.6,615.5,592.6z"/>
		<path fill="#FDCEA1" d="M616,581.3c0,0-21.6,47.7,1.5,75.9c23.1,28.1,62.3,0,65.3-20.6c0,0,16.6,9.5,17.6-10
			c1-19.6-15.1-14.6-15.1-14.6l-11.1-3.5c0,0-6-19.6-6.5-21.1c-0.5-1.5-10.3,2.8-22.4,2.8c-12.1,0-24.1-9-24.1-9L616,581.3z"/>
		<path fill="#DDE5EB" d="M605.4,632.6c0,0,4-8,19.6-8.5c15.6-0.5,48.7,6.5,50.7,7.5c2,1,7,5,7,5l-3,22.1c0,0-23.1,8-41.2,9
			c-18.1,1-28.1-10.6-28.1-10.6L605.4,632.6z"/>
		<polygon fill="#DDE5EB" points="667.2,632.6 678,607.2 687.1,610 673.3,634.6 		"/>
		<g>
			<path fill="#231F20" d="M650,604.7c-0.8,0-1.6,0.3-2.2,0.8c0.2,0,0.4-0.1,0.6-0.1c1.5,0,2.8,1.2,2.8,2.8s-1.2,2.8-2.8,2.8
				c-0.9,0-1.7-0.4-2.2-1.1c0.2,2.3,1.8,4.1,3.9,4.1c2.2,0,3.9-2.1,3.9-4.6C653.9,606.8,652.2,604.7,650,604.7z"/>
			<path fill="#FAAF76" d="M643.4,614.5c0,0,1.5,4.8,8,4.5c6.5-0.3,7.8-3.8,7.8-3.8S649.9,619,643.4,614.5z"/>
			<path fill="#FDCEA1" d="M645.1,608.7c0,0,7.8-1.5,13.1,1c0,0-2.5-6.3-8-6.3C644.6,603.4,645.1,608.7,645.1,608.7z"/>
		</g>
		<g>
			<path fill="#231F20" d="M620.9,604.7c0.8,0,1.6,0.3,2.2,0.8c-0.2,0-0.4-0.1-0.6-0.1c-1.5,0-2.8,1.2-2.8,2.8s1.2,2.8,2.8,2.8
				c0.9,0,1.7-0.4,2.2-1.1c-0.2,2.3-1.8,4.1-3.9,4.1c-2.2,0-3.9-2.1-3.9-4.6C617,606.8,618.7,604.7,620.9,604.7z"/>
			<path fill="#FAAF76" d="M627.5,614.5c0,0-1.5,4.8-8,4.5c-6.5-0.3-7.8-3.8-7.8-3.8S621,619,627.5,614.5z"/>
			<path fill="#FDCEA1" d="M625.8,608.7c0,0-7.8-1.5-13.1,1c0,0,2.5-6.3,8-6.3C626.3,603.4,625.8,608.7,625.8,608.7z"/>
		</g>
		<path fill="#231F20" d="M617.3,603.8c-0.9,0-1.9-0.1-2.9-0.3c-0.3-0.1-0.4-0.3-0.4-0.6c0.1-0.3,0.3-0.4,0.6-0.4
			c6.4,1.4,11.6-2.9,11.6-2.9c0.2-0.2,0.5-0.2,0.7,0.1c0.2,0.2,0.2,0.5-0.1,0.7C626.7,600.5,622.8,603.8,617.3,603.8z"/>
		<path fill="#231F20" d="M649.3,603.8c-5.5,0-9.4-3.3-9.6-3.4c-0.2-0.2-0.2-0.5-0.1-0.7c0.2-0.2,0.5-0.2,0.7-0.1
			c0.1,0,5.2,4.3,11.6,2.9c0.3-0.1,0.5,0.1,0.6,0.4s-0.1,0.5-0.4,0.6C651.2,603.7,650.3,603.8,649.3,603.8z"/>
		<path fill="#028141" d="M679.7,681.7c0,0,9-12.8,16.2-5.3c7.2,7.5,17,62.2,17.3,73.9c0.4,11.7-42.6,23.4-46.3,21.9
			c-3.8-1.5-3.8-12.1-4.1-17c-0.4-4.9,24.9-12.8,24.9-12.8S668.4,685.8,679.7,681.7z"/>
		<path fill="#04723B" d="M658.9,749.5c0,0,8.3,18.5,7.9,22.6c-0.4,4.1-6,5.7-6,5.7s-7.9-20.7-7.9-24.9
			C652.9,748.8,658.9,749.5,658.9,749.5z"/>
		<polygon fill="#FFCA4D" points="676.2,548.4 679.5,551.5 683.5,549.3 681.6,553.4 684.9,556.6 680.3,556 678.4,560.1 677.6,555.6 
			673,555 677,552.9 		"/>
		<polygon fill="#FFCA4D" points="583.8,576.8 585.8,580.9 590.3,580.2 587.1,583.4 589.1,587.5 585.1,585.4 581.9,588.6 
			582.6,584.1 578.5,582 583,581.3 		"/>
		<polygon fill="#FFCA4D" points="617.7,542.9 619.7,547 624.2,546.3 621,549.5 623.1,553.5 619,551.5 615.8,554.7 616.5,550.2 
			612.5,548.1 617,547.4 		"/>
		<polygon fill="#FFCA4D" points="678,584 680,588 684.5,587.3 681.3,590.5 683.3,594.6 679.3,592.5 676.1,595.7 676.8,591.2 
			672.7,589.2 677.2,588.5 		"/>
		<path fill="#06B0D8" d="M588.9,588.6c0,0-7.5,4.9,1.9,9c9.4,4.1,78.4-3.4,89.7-8.3c0,0-68.2,15.4-89.3,10.2
			C570,594.3,588.9,588.6,588.9,588.6z"/>
	</g>
</g>
</svg>
