<?xml version="1.0" encoding="utf-8"?>
<!-- Generator: Adobe Illustrator 25.1.0, SVG Export Plug-In . SVG Version: 6.00 Build 0)  -->
<svg version="1.1" id="Capa_1" xmlns="http://www.w3.org/2000/svg" xmlns:xlink="http://www.w3.org/1999/xlink" x="0px" y="0px"
	 viewBox="0 0 2122 2122" style="enable-background:new 0 0 2122 2122;" xml:space="preserve">
<style type="text/css">
	.st0{fill:none;stroke:#708185;stroke-width:33.2461;stroke-linejoin:round;stroke-miterlimit:10;}
	.st1{fill:none;stroke:#8DA1A7;stroke-width:16.6231;stroke-linejoin:round;stroke-miterlimit:10;}
	.st2{fill:#BCE0EF;}
	.st3{fill:#A5D8EC;}
	.st4{fill:#B0DCEC;}
	.st5{fill:#4A403E;}
	.st6{fill:#F2BBA0;}
	.st7{fill:none;stroke:#F1B191;stroke-width:48.2867;stroke-linecap:round;stroke-linejoin:round;stroke-miterlimit:10;}
	.st8{fill:#AEA6D2;}
	.st9{fill:#3D3332;}
	.st10{fill:#5CB0DA;}
	.st11{fill:#EDE8EB;}
	.st12{fill:#F0EBE8;}
	.st13{fill:none;stroke:#E49D7C;stroke-width:2.8984;stroke-linecap:round;stroke-linejoin:round;stroke-miterlimit:10;}
	.st14{fill:#EFEAEC;}
	.st15{fill:#C1E8FB;}
	.st16{fill:none;stroke:#FFFFFF;stroke-width:2.8404;stroke-linecap:round;stroke-linejoin:round;stroke-miterlimit:10;}
	.st17{fill:#94D9F8;}
	.st18{display:none;}
	.st19{display:inline;}
	.st20{fill:#F5928E;}
	.st21{fill:#E05C55;}
	.st22{fill:#9C6358;}
	.st23{fill:#FAE68E;}
	.st24{fill:none;stroke:#E49E83;stroke-width:3.3331;stroke-linecap:round;stroke-linejoin:round;stroke-miterlimit:10;}
	.st25{fill:#F0E9EB;}
	.st26{fill:none;stroke:#543C32;stroke-width:3.1996;stroke-linecap:round;stroke-linejoin:round;stroke-miterlimit:10;}
	
		.st27{fill:none;stroke:#543C32;stroke-width:2.3997;stroke-linecap:round;stroke-linejoin:round;stroke-miterlimit:10;stroke-dasharray:3.1996;}
	
		.st28{fill:none;stroke:#543C32;stroke-width:2.4498;stroke-linecap:round;stroke-linejoin:round;stroke-miterlimit:10;stroke-dasharray:3.2664;}
	.st29{fill:none;stroke:#543C32;stroke-width:4.2858;stroke-linecap:round;stroke-linejoin:round;stroke-miterlimit:10;}
	.st30{fill:none;stroke:#FFFFFF;stroke-width:3.2664;stroke-linecap:round;stroke-linejoin:round;stroke-miterlimit:10;}
	.st31{fill:none;stroke:#5CB0DA;stroke-width:3.2664;stroke-linecap:round;stroke-linejoin:round;stroke-miterlimit:10;}
</style>
<g>
	<g>
		<g>
			<path class="st0" d="M1089.7,1573.2H26.8V901.4c0-46.8,38-84.8,84.8-84.8h893.3c46.8,0,84.8,38,84.8,84.8V1573.2z"/>
			<line class="st1" x1="40.4" y1="1023.8" x2="1089.7" y2="1023.8"/>
			<line class="st1" x1="40.4" y1="1181" x2="1089.7" y2="1181"/>
			<g>
				<path class="st2" d="M944.1,1175.6c0.1,41.8-6.8,87.3-36.2,115.4c-25.5,24.4-62.1,30.1-96.4,33.6
					c-118,12.2-237.2,12.7-355.4,1.5c-40.4-3.9-80.7-9.1-120.8-15.6c-3.1-0.5-6.1-1.2-9-2.1c-1.2-0.4-2.4-0.8-3.6-1.2
					c-1.2-0.4-2.3-0.9-3.5-1.4c-2.3-0.9-4.5-2-6.7-3.3c-2.2-1.2-4.3-2.5-6.4-4c-1.1-0.7-2.1-1.5-3.1-2.3c-5.1-3.9-9.8-8.5-14.2-13.7
					c-1-1.2-2-2.4-3-3.6c-2.5-3.1-4.8-6.4-7-9.8c-0.8-1.2-1.6-2.5-2.3-3.7c-0.8-1.2-1.5-2.5-2.2-3.8c-1.5-2.5-2.9-5.2-4.3-7.8
					c-0.7-1.3-1.4-2.7-2-4c-2.7-5.5-5.2-11.2-7.5-17.2c-1.1-2.9-2.2-5.8-3.3-8.8c-0.7-2-1.4-4-2.1-6.1c-1.4-4.2-2.7-8.5-4-12.9
					c-1-3.2-1.8-6.4-2.7-9.6c-1.6-6.1-3.1-12.3-4.4-18.4c-1.6-7.3-3-14.6-4.3-21.8c-0.3-1.7-0.6-3.5-0.9-5.2
					c-4.3-26.3-6.6-51.9-7.5-73.9c-0.1-2.4-0.2-4.7-0.3-7c-0.2-8.1-0.3-15.6-0.2-22.3c0.3-15.3,1.3-31,7.7-44.8
					c6.4-13.8,19.1-25.2,33.7-25.4c0.3,0,0.6,0,1,0c7.5,0.1,14.7,3.1,21.8,5.6c70.6,26,147.6,23,221.9,14.4
					c74.3-8.6,148.7-22.5,223.3-17.6c49.4,3.3,102.7,14.1,145.7-11.7c8.1-4.9,19.2-10.7,25.7-3.6c2.4,2.7,3.3,6.4,4,10
					C929.9,1040.2,943.9,1107.4,944.1,1175.6z"/>
				<g>
					<path class="st3" d="M463.3,1324.1c-2.3,0.9-4.7,1.5-7.1,2c-40.4-3.9-80.7-9.1-120.8-15.6c-3.1-0.5-6.1-1.2-9-2.1
						c-1.2-0.4-2.4-0.8-3.6-1.2c-1.2-0.4-2.3-0.9-3.5-1.4c-2.3-1-4.5-2.1-6.7-3.3c-2.2-1.2-4.3-2.6-6.4-4c-1.1-0.7-2.1-1.5-3.1-2.3
						c-5.1-3.9-9.8-8.6-14.2-13.7c-1-1.2-2-2.4-3-3.6c-2.4-3.1-4.8-6.4-7-9.8c-0.8-1.2-1.6-2.5-2.3-3.7c-0.8-1.2-1.5-2.5-2.2-3.8
						c-1.5-2.5-2.9-5.2-4.3-7.8c-0.7-1.3-1.4-2.7-2-4c-2.7-5.5-5.2-11.2-7.5-17.2c-1.1-2.9-2.2-5.8-3.3-8.8c-0.7-2-1.4-4-2.1-6.1
						c-1.4-4.2-2.7-8.5-4-12.9c-1-3.2-1.8-6.4-2.7-9.6c-1.6-6.1-3.1-12.3-4.4-18.4c-1.6-7.3-3-14.6-4.3-21.8
						c-0.3-1.7-0.6-3.5-0.9-5.2c-4.3-26.3-6.6-51.9-7.5-73.9c-0.1-2.4-0.2-4.7-0.3-7c-0.2-8.1-0.3-15.6-0.2-22.3
						c0.3-15.3,1.3-31,7.7-44.8c6.4-13.8,19.1-25.2,33.7-25.4c0.3,0,0.6,0,1,0c-1.1,1.2-1.8,2.9-1.8,5.1c0,30.7,0.2,61.4,3,92
						c5.4,58.7,31.2,126.5,72.6,170.8C381.3,1280.8,411.2,1302,463.3,1324.1z"/>
					<path class="st4" d="M278.9,1102.3c1.9,12.1,4.2,24.1,7.1,35.9c1.1,3.6,2.3,7.1,3.6,10.6L278.9,1102.3z"/>
				</g>
			</g>
			<g>
				<path class="st5" d="M510.4,794.2c0.7,7.6,2.4,15.1,3.5,22.6c5.5,35.9-0.3,73.5-16.3,106.1c9.6-4.4,18.2-10.9,24.9-18.9
					c-8.2,18.1-10.3,38.2-18.6,56.3c-10.8,23.2-9.6,44-4.8,68.3c4.9,25.3,12.9,48.4,33.5,67c58.6-35.4,87.6-103.3,79.1-171.3
					c-2-16.2-16.3-49.2-14.7-65.4c1.9-18.5-1.5-41-2-59.6c-0.5-19.9-0.8-25.4-16.2-38.1c-10.7-8.8-30.8-29.5-45.9-26.4
					c-16,3.2-22.3,35.2-22.8,49.5C509.9,787.7,510.1,790.9,510.4,794.2z"/>
				<path class="st6" d="M891.7,1370.7l-4.1-12.8c-10.4-32.2-44.9-49.9-77.1-39.5c-23.9,7.7-39.8,28.8-42.1,52.3H891.7z"/>
				<path class="st6" d="M801,1370.7c-12-16-31.5-25.8-53-24.4c-18.6,1.2-34.7,10.6-45.1,24.4H801z"/>
				<path class="st7" d="M908.5,1077.3c-21-29.3-42-58.5-63-87.8"/>
				<path class="st5" d="M553.4,790.5c22.9,10.7,47.8,17.6,72.8,21.1c35,4.8,70.6,3.2,105.5-1.8c28.6-4.1,51.9-17.8,70.1-43.2
					c12.8-17.7,35.4-34.5,29.6-56.6c-5.9-22.5-11.5-46.2-30.1-62c-61-52-135.6-61.5-211.2-89.1c-26.4-9.7-53.5-8.6-82.1-9.5
					c-23.2-0.8-41.3-2.4-48.3,17.5c-22.1,63.2-12.3,134.7,35.5,183.3C512.1,767.1,531.9,780.5,553.4,790.5z"/>
				<path class="st8" d="M933.8,1370.7c-10.3-20.3-20.5-40.5-30.8-60.8c-7-13.9-13.9-27.9-21.1-41.6c-9.1-17.3-9.5-13.8-26.9-7.1
					c-22.5,8.6-46.2,13.7-70.3,14.2c-26.6,0.6-53.4-2.2-79.9,1.4c-20.7,2.7-34.9,16.8-55.8,18.8c-3.7,14-2.9,31.9-3.4,55.1
					c-0.2,6.9-0.3,13.5-0.5,20H933.8z"/>
				<path class="st9" d="M817.1,674.4c-3.4-8.3,0.4-20.6,1.8-29c1.3-7.7,1.1-23.6,6.7-29.8c9.1-10.2,21.7-3.4,27.4,4.9
					c14.5,21,20.7,34.4-0.2,51.4C842.3,680.4,824.8,693.4,817.1,674.4z"/>
				<path class="st5" d="M478,684c-1.1-12.4,10.1-8.3,18.5-3.4c13,7.7,21.2,21,29.4,33.2c6.5,9.6,15.1,17.3,22.8,25.8
					c0.1,0.5,0.3,1,0.5,1.5c5.2,12.3,6.2,25.1,6.5,38.1c-1.3,0-2.8-0.4-4.7-1.6c-23.2-14.8-43.4-32.9-57.7-56.6
					C487.5,711.4,479,695.3,478,684z"/>
				<path class="st10" d="M890.9,1248.6c0.2,0.8,0.4,1.7,0.3,2.6c-0.2,1.9-1.2,3.5-2.4,5c-22.1,29.7-72.4,25.9-105.3,27.6
					c-17.8,0.9-35.5,3.3-53.3,4.6c-17.2,1.3-35,2.8-50.7,10.5c-10.1,4.9-22.5,16.9-34.6,14.1c-14.4-3.4-7.8-24.1-4.2-36.1
					c6.9-23.5,15.9-45.5,17.6-62.3c5-52.5-23.5-72.4-38.5-128.4c-7.5-28-10-50.9-17.1-78.9c-2.2-8.7-10.7-61.5,10.4-70.4
					c47.9-20.1,126.4-45.1,172.9-44.2c16.2,0.3,37,8.2,46.5,26c17.2,32.1,29.5,58.5,32,94.3c3.1,43.8-9.3,52.8-12.7,90.7
					c-4.8,51.9,20.3,96.1,38.3,142.7C890.4,1247.1,890.7,1247.8,890.9,1248.6z"/>
				<path class="st11" d="M793.4,1091.7c-44.3,9.4-93.2-0.7-93.9-0.8c40.6-1,66.9-5.2,101.4-12.1c18.1-3.6,42.3-13.6,60.3-22.5
					c-0.6,1.5-1.1,3-1.7,4.5C843.4,1079.6,814.9,1087.1,793.4,1091.7z"/>
				<g>
					<path class="st6" d="M465.6,688.7c3.4,18.7,24,29.4,39.9,29.2c22.1-0.2,26.6-21.9,23.2-40.7c-3.4-18.8-20.3-31.4-37.7-28.2
						C473.5,652.1,462.2,669.9,465.6,688.7z"/>
					<path class="st12" d="M486.9,665.5c-2.6,1.4-4.1,3.4-5.8,5.8c-2,2.8-1.6,5.6-2,8.9c-0.3,3.6,0.7,6.3,1.2,9.8
						c3.3,4.6,18,8.2,24,4.3c6.2-4,6.1-18-0.8-28.5c-1.7-2.6-3.5-4.2-5.7-4.2C493.9,661.5,490.3,663.7,486.9,665.5z"/>
					<path class="st13" d="M503.3,662.9c-7.5-2.3-14.6-0.3-19.8,5c-3.5,3.6-6.2,10.1-4.1,19.9"/>
				</g>
				<path class="st6" d="M632.3,422.2c53-9.6,103.4,0.5,143.9,55c28.2,37.9,54.2,111.2,62.4,156.3c13.8,76.1-15.2,114.4-60.4,157.2
					c-5.2,5-10.9,9-15.9,13.7c-9.5,9-20.3,15.8-23.8,29.3c-3.6,13.9-2.3,30.3,4.3,43.1c5.4,10.4,15,15.6,23.1,24.8
					c12.2,13.8,24.2,50.3-0.1,57.2c-33.3,9.5-89.3-26.2-90-40.8c-0.4-9.5,8.5-14.2,11-22.4c5.2-17.3-4.9-42.4-16.3-55.1
					c-9.5-10.6-22.4-12.8-34.9-18c-2.3-1-4.8-1.7-7.2-2.7c-58.7-23.4-100.8-49.7-114.9-127.2c-9.1-50.2-8.8-134.3,8.2-183.3
					C541.8,450.9,583.5,431.1,632.3,422.2z"/>
				<path class="st14" d="M545.2,478.6c22.4-35.1,47.3-49.2,86.1-56.3c52.6-9.6,102.7,0.6,143.1,55.1c28.1,37.9,54,111.2,62.2,156.4
					c2.5,13.6,3.5,26,3.4,37.5c-8.7-12.7-25.5-37.9-38.4-47.7c-6.7-5.1-3.3,7.7-11.4,5.7c-9.5-4.7-22.2-18.8-32.9-21.3
					c-17.7-4-37.2,1.1-54.8,3.7c-20.9,3.2-45.4,7.4-66,1.9c-16.1-4.3-33.8-8-47.6-17.8c-16.1-11.5-23.1-35.1-23.9-53.9
					C564.6,538.4,550.2,498.1,545.2,478.6z"/>
				<path class="st11" d="M738.6,833.6c-2.4,9.2-2.6,19.5-0.5,29.2c-11,16.5-31.8,27-51.9,34.5c0.3-0.6,0.5-1.2,0.7-1.8
					c5.2-17.3-4.9-42.4-16.3-55.1c-1.4-1.6-3-3-4.6-4.3c10,3,33.4,3.8,48.2-0.7c11.1-3.5,21.9-7.9,30.9-14.3
					C742.1,824.7,739.8,828.7,738.6,833.6z"/>
				<path class="st8" d="M495,719.4c-0.8-4.6,2.2-9.1,6.9-9.9c4.7-0.8,9.1,2.2,9.9,6.9c0.8,4.6-2.2,9.1-6.9,9.9
					C500.3,727.2,495.9,724.1,495,719.4z"/>
				<path class="st5" d="M470.5,662.9c-17-43.9-19.3-77.4-4-122.4c5.3-15.6,18.4-48.1,26.3-60.8c18.7-30.2,38.4-52.3,76.5-57.7
					c30.1-12.7,93.9-25.5,128-19.7c33.4,5.6,65.9,17.9,92.3,39.2c19.5,15.8,43,50.5,56.8,82.2c34.5,79.5,24.4,120.2,19.7,129.1
					c-7.6-14.3-22.9-25.6-36.5-33.7c-25.2-15.2-67.7-24.2-96.9-22c-32.5,2.4-83.5,9.1-115.2-0.1c-51.4-14.9-51.9-50.9-51.9-50.9
					c-4.2,14-8,27.2-10.1,41.6c-4.1,29-2.5,58.6-14.6,85.8c-0.2,0.5-0.4,1-0.8,1.3c-0.7,0.6-1.6,0.6-2.5,0.6
					c-4-0.1-8.1-0.1-12.1-0.2c-1.4,0-2.8-0.1-3.9-0.9c-0.7-0.5-1.2-1.3-1.7-2.1c-6-9.9-9.6-22.2-22.2-23.4
					c-5.8-0.5-11.5,0.6-16.6,3.5C478.6,653.7,469.9,659.5,470.5,662.9z"/>
				<path class="st13" d="M483.6,668.2c2.4,5.8,8.1,11.1,15,15.4"/>
				<path class="st15" d="M568.4,709.6c44.4,23.7,86.8,21.2,134,20c45.7-1.1,97.3-8.8,138.6-23.7c-11.4,49.7-52.5,95.7-91,118.7
					c-19.2,11.5-50.4,18.7-72.6,15.9c-9.4-1.2-23.4-3.9-32.3-7.1c-30.8-11.2-55.6-25.7-81.9-45.3c-3.8-2.9-12.6-12.3-12.6-12.3
					s8.5-7.7,11.4-12.7C575.4,740.1,568.4,709.6,568.4,709.6z"/>
				<path class="st16" d="M572.2,714.1c-18.9-19-36.6-32.7-57.7-51.6"/>
				<path class="st16" d="M554.3,776.2c-17.6-16.1-29.3-36.5-38.2-58.8"/>
				<path class="st6" d="M942.5,1071.2c-5.7-23.5-12.9-44.8-20.4-66.1c-7.6-21.1-15.8-41.9-24.4-62.4c-8.7-20.5-17.8-40.8-27.5-60.9
					c-9.8-20.1-20-40-32.3-59.7c-5.7-9.1-17.6-11.9-26.8-6.2c-8.5,5.3-11.5,15.9-7.3,24.7l0.2,0.4c8.7,18.5,16.3,38.5,23.3,58.6
					c7,20.2,13.4,40.6,19.4,61.1c5.9,20.5,11.4,41.2,16.2,61.9c4.7,20.5,9,41.4,11.3,60.7l0,0.1c2.3,19.1,19.6,32.7,38.7,30.4
					c19.1-2.3,32.7-19.6,30.4-38.7C943.1,1073.9,942.8,1072.4,942.5,1071.2z"/>
				<g>
					<path class="st6" d="M818.3,873.2c-10.9-25.8-25.2-59.1-26.2-59.5c6.8-11.1,17.1-18.9,28.5-18.4c10,16.3,24.6,36.2,35.8,59.3
						C843.6,861.2,830.8,867.1,818.3,873.2z"/>
					<path class="st6" d="M823.1,800.9c0.1,2.9,0.6,5.5-0.7,8.2c-4.9,10-18.9,15-30.9,7.5c-8-5-18.2-16.4-25.5-23.1
						c-2.7-2.5-6.3-7.6-6.7-11.4c-0.4-4.9,7.5-9.2,18.4,7.4c-12.1-22.9-20.7-35.7-13.9-38.4c6.3-2.6,17.9,16.4,27.5,26.1
						c-5.8-12.9-17.7-33.1-11.4-34.6c9.3-2.3,20.8,17.7,27.9,32.6c-1.9-4-3.1-9.1-4.6-13.3c-1.1-3.2-1.8-7.6,1.5-10
						c3.1-2.2,7.3-0.1,9.1,2.8c2.4,3.9,3.8,9.3,5,13.7c1.3,4.7,2.2,9.5,2.9,14.3C822.5,788.6,822.8,794.7,823.1,800.9z"/>
				</g>
			</g>
			<path class="st15" d="M2094.3,1553H40.4c0-79.8-25.8-193.1,62.7-233.4c35.6-16.2,75.9-17.8,115-18.6
				c360.8-7.9,721.8,18.1,1082.6,8c153.6-4.3,307-15.2,460.7-15.2c76.9,0,152.9,5.8,229.6,10.3c55.1,3.2,103.3,36.6,103.3,97.4V1553
				z"/>
			<path class="st17" d="M2084.6,1322.1c-15.2-25.6-46.4-41.2-74.5-51c-50.9-17.7-83.6-28.7-135.8-41.9
				c-37-9.3-74.9-26.8-106.7-48.2c-28.5-19.1-67.4-38.2-101.1-47.1c-34.8-9.1-71.1-9.8-106.7-8.1c-70.4,3.2-142,17.3-211.8,1.3
				c-55.2-12.6-117.8-6.8-174.6-4.2c-64.2,3-128.2,9-192,16.4c-110.5,12.7-219.4,34.3-330.5,43.2c-7.6,0.6-15.4,1.3-21.9,5.2
				c-8.5,5.2-12.8,15-16.5,24.3c-11.3,28.5-18.5,54.6-21.9,84.2c0,0-0.1,0-0.1,0c-0.4,3.9-0.7,7.9-1,11.8
				c-4.4,57.4-6.8,115-7.2,172.6c-0.1,14-7.6,61.6,3.6,71.2c8.6,7.4,44.8,1.3,56.1,1.3c82.3,0,164.7,0,247,0
				c271.5,0,543.1,0,814.6,0c130.2,0,260.4,0,390.6,0c0-49.9,1.6-100.2,1.1-150.2C2100.1,1369.7,2118,1335.9,2084.6,1322.1z"/>
			<line class="st1" x1="18.9" y1="1638.6" x2="1060.5" y2="1638.6"/>
			<line class="st0" x1="1060.1" y1="1580.6" x2="1060.1" y2="1960.8"/>
			<line class="st0" x1="26.1" y1="1573.2" x2="26.1" y2="1960.8"/>
			<path class="st6" d="M587.7,972.9c-4.8,15.3-8.8,30-12.6,44.8c-3.8,14.8-7.2,29.7-10.4,44.6c-6.3,29.9-11.9,59.8-14.6,91.9
				c-0.6,8.1-1.1,16.3-0.9,25.3c0.1,4.5,0.4,9.2,1,14.4c0.7,5.2,2.1,11.6,4.5,17.4c4.7,11.7,12.6,21.5,20.9,28.3
				c8.4,7,17,11.6,25.5,15.3c16.9,7.2,33.2,10.4,49.2,12.7c15.9,2.2,30.5,4.3,46.8,3.6c11.7,0.4,21.5-8.8,21.8-20.6
				c0.3-10.9-17.8-20.4-17.8-20.4c-16.2-0.9-28.8-5.5-42.1-8.7c-13.1-3.3-25.8-7.5-35.7-13.1c-4.9-2.8-9.1-5.8-11.7-8.8
				c-2.8-3-3.9-5.5-4.3-7.7c-0.2-1.2-0.2-2.1-0.4-4.2c-0.1-2.2-0.1-4.9,0.1-7.8c0.4-5.9,1.2-12.4,2.2-19.1
				c4.3-26.8,11.7-55,19.7-82.5c4.1-13.8,8.4-27.6,12.9-41.2c4.6-13.6,9.4-27.2,14.4-39.9c7.5-18.6-1.6-39.8-20.2-47.3
				c-18.6-7.5-39.8,1.6-47.3,20.2c-0.3,0.8-0.6,1.7-0.9,2.5L587.7,972.9z"/>
			<path class="st10" d="M655.3,1038.7c-1.3,3.8-12.5,25.9-13.8,29.7c-21.7-7.5-61.5-18.5-82.8-26.9c2.1-29.1,9.4-53.2,19.3-72.7
				c10.3-20.2,30.7-38,54.7-30.1c19.1,6.3,30.3,33.1,30.4,53.2C663.1,1005.6,659.9,1025.1,655.3,1038.7z"/>
			<g>
				<path class="st6" d="M682.9,1271.2c26.8,0.4,66.6-1.9,67.4-1.1c7.2-10.9,9.8-23.5,4.6-33.6c-19.1-2.2-43.2-7-68.9-7.3
					C685.5,1243.6,683.2,1257.4,682.9,1271.2z"/>
				<path class="st6" d="M748.8,1236.6c-2.6,1.1-5.3,1.8-7.1,4.1c-7,8.7-5.6,23.5,6.3,31.2c7.9,5.1,22.6,9.5,31.7,13.4
					c3.4,1.4,9.6,2.5,13.2,1.2c4.7-1.7,5.1-10.7-14.5-13.6c25.8,1.2,41.1,3.6,40.7-3.7c-0.3-6.8-22.5-9.3-35.3-13.9
					c14.2-0.3,37.4,2,36.1-4.4c-1.9-9.4-24.9-11.4-41.3-11.5c4.4,0,9.5-1,14-1.4c3.4-0.3,7.7-1.6,8.4-5.6c0.7-3.7-3-6.6-6.4-7
					c-4.5-0.6-10,0.5-14.5,1.3c-4.8,0.8-9.5,2-14.2,3.4C760.2,1231.9,754.5,1234.2,748.8,1236.6z"/>
			</g>
			<g>
				<path class="st0" d="M2094.3,1573.2H790.6v-295c0-53.7,43.5-97.2,97.2-97.2H1997c53.7,0,97.2,43.5,97.2,97.2V1573.2z"/>
				<line class="st1" x1="852.3" y1="1638.6" x2="2049.7" y2="1638.6"/>
				<line class="st0" x1="2049.7" y1="1580.6" x2="2049.7" y2="1960.8"/>
				<line class="st0" x1="852.3" y1="1573.2" x2="852.3" y2="1960.8"/>
			</g>
		</g>
		<g class="st18">
			<g class="st19">
				<g>
					<path class="st20" d="M1129.4,688.8c2.1-0.9,5.7-3.4,7.3-4.5c9-5.9,21.8-12.4,33.8-13.1c4.4-0.3,7.8-3.9,7.5-8
						c-0.3-4.2-4.1-7.3-8.5-7.1c-1.7,0.1-3.2,0.7-4.5,1.6c-6,4.6-14.2,7.6-22.1,10c-2.5,0.7-14.1,3.3-19.6,4.4
						c-5.3,1.1-8.9,6.8-6.9,12.1C1118.8,690.3,1124.1,690.9,1129.4,688.8z"/>
					<path class="st20" d="M1164.8,642c-1.7,1.5-1.9,4.4-2.1,6.5c-0.2,4.8,1.2,9.6,2.9,14c2.2,5.9,5.5,11.9,10.6,15.8
						c2.2,1.7,4.6,2.4,7.4,1.3c2.5-1,4.5-3.6,5.2-6.1c2.1-7,2.3-14.5-0.8-20.4c-3.1-5.9-9.4-11.3-16.5-12
						C1169.4,640.8,1166.6,640.5,1164.8,642z"/>
				</g>
				<g>
					<path class="st20" d="M985,729.7c-2.1,0.9-5.7,3.4-7.3,4.5c-9,6-21.8,12.4-33.8,13.1c-4.4,0.3-7.8,3.9-7.5,8
						c0.3,4.2,4.1,7.3,8.5,7.1c1.7-0.1,3.3-0.7,4.5-1.6c6-4.6,14.2-7.6,22.1-10c2.5-0.7,14.1-3.3,19.6-4.4c5.3-1.1,8.9-6.8,6.9-12.1
						C995.5,728.2,990.3,727.6,985,729.7z"/>
					<path class="st20" d="M949.5,776.5c1.7-1.4,1.9-4.4,2.1-6.5c0.2-4.8-1.2-9.6-2.8-14c-2.2-5.9-5.5-11.8-10.6-15.8
						c-2.2-1.7-4.6-2.4-7.4-1.3c-2.5,1-4.5,3.6-5.2,6.1c-2.1,7-2.3,14.5,0.8,20.4c3.1,5.9,9.4,11.3,16.5,12
						C945,777.7,947.8,778,949.5,776.5z"/>
				</g>
				<g>
					<path class="st20" d="M1077.7,781.5c0.8,2.1,3.4,5.7,4.5,7.3c6,9,12.4,21.8,13.1,33.8c0.3,4.4,3.9,7.8,8,7.5
						c4.2-0.3,7.3-4.1,7.1-8.5c-0.1-1.7-0.7-3.2-1.6-4.5c-4.6-6-7.6-14.2-10-22.1c-0.7-2.5-3.3-14.1-4.4-19.6
						c-1.1-5.3-6.8-8.9-12.1-6.9C1076.1,770.9,1075.6,776.1,1077.7,781.5z"/>
					<path class="st20" d="M1124.4,816.9c-1.5-1.7-4.4-1.9-6.5-2c-4.8-0.2-9.6,1.2-14,2.8c-5.9,2.2-11.8,5.5-15.8,10.6
						c-1.7,2.2-2.4,4.6-1.3,7.4c1,2.5,3.6,4.5,6.1,5.2c7,2.1,14.5,2.3,20.4-0.8c5.9-3.1,11.3-9.4,12-16.5
						C1125.6,821.4,1125.9,818.7,1124.4,816.9z"/>
				</g>
				<g>
					<path class="st20" d="M1036.7,637c-0.8-2.1-3.4-5.7-4.5-7.3c-6-9-12.4-21.8-13.1-33.8c-0.3-4.4-3.9-7.8-8-7.5
						c-4.2,0.3-7.3,4.1-7.1,8.5c0.1,1.7,0.7,3.3,1.6,4.5c4.6,6,7.6,14.2,10,22.1c0.7,2.5,3.3,14.1,4.4,19.6
						c1.1,5.3,6.8,8.9,12.1,6.9C1038.2,647.6,1038.8,642.4,1036.7,637z"/>
					<path class="st20" d="M990,601.6c1.4,1.7,4.4,1.9,6.5,2c4.8,0.2,9.6-1.2,14-2.8c5.9-2.2,11.8-5.5,15.8-10.6
						c1.7-2.2,2.4-4.6,1.3-7.4c-1-2.5-3.6-4.5-6.1-5.2c-7-2.1-14.5-2.3-20.4,0.8c-5.9,3.1-11.3,9.4-12,16.5
						C988.7,597.1,988.5,599.8,990,601.6z"/>
				</g>
				<g>
					<path class="st20" d="M1122.7,745.8c2.1,0.9,6.5,1.6,8.3,2c10.6,2.2,24.2,6.6,33.2,14.6c3.3,2.9,8.2,2.8,11-0.4
						c2.8-3.2,2.3-8.1-1-11c-1.3-1.1-2.8-1.8-4.3-2c-7.5-1-15.4-4.6-22.7-8.6c-2.3-1.2-12.2-7.6-16.9-10.7c-4.6-3-11.2-1.5-13.4,3.7
						C1114.2,739.5,1117.5,743.5,1122.7,745.8z"/>
					<path class="st20" d="M1180.8,737.9c-2.2-0.2-4.5,1.7-6,3.1c-3.6,3.2-5.9,7.7-7.9,11.9c-2.6,5.7-4.5,12.3-3.7,18.6
						c0.3,2.8,1.6,5,4.3,6.2c2.5,1.1,5.7,0.6,8-0.7c6.4-3.5,11.9-8.6,13.9-15c1.9-6.4,1.3-14.7-3.2-20.2
						C1184.9,740.2,1183.2,738,1180.8,737.9z"/>
				</g>
				<g>
					<path class="st20" d="M991.6,672.7c-2.1-0.9-6.5-1.6-8.3-2c-10.6-2.2-24.2-6.6-33.2-14.6c-3.3-2.9-8.2-2.8-11,0.4
						c-2.7,3.2-2.3,8.1,1,11c1.3,1.1,2.8,1.8,4.3,2c7.5,1,15.4,4.6,22.7,8.6c2.3,1.2,12.2,7.6,17,10.7c4.6,3,11.2,1.5,13.4-3.7
						C1000.2,679.1,996.9,675,991.6,672.7z"/>
					<path class="st20" d="M933.5,680.7c2.2,0.2,4.5-1.7,6-3.1c3.6-3.2,5.9-7.7,7.9-11.9c2.6-5.7,4.5-12.3,3.7-18.6
						c-0.4-2.8-1.6-5-4.3-6.2c-2.5-1.1-5.7-0.6-8,0.7c-6.4,3.5-11.9,8.6-13.8,15c-1.9,6.4-1.3,14.6,3.2,20.2
						C929.5,678.3,931.2,680.5,933.5,680.7z"/>
				</g>
				<g>
					<path class="st20" d="M1093.8,643.7c0.9-2.1,1.6-6.5,2-8.3c2.2-10.6,6.6-24.2,14.6-33.2c2.9-3.3,2.8-8.2-0.4-11
						c-3.2-2.7-8.1-2.3-11,1c-1.1,1.3-1.8,2.8-2,4.3c-1,7.5-4.6,15.4-8.6,22.7c-1.2,2.3-7.6,12.3-10.7,17c-3,4.6-1.5,11.2,3.7,13.4
						C1087.4,652.3,1091.5,649,1093.8,643.7z"/>
					<path class="st20" d="M1085.8,585.6c-0.2,2.2,1.7,4.5,3.1,6c3.2,3.6,7.7,5.9,11.9,7.9c5.7,2.6,12.3,4.5,18.6,3.7
						c2.8-0.4,5-1.6,6.2-4.3c1.1-2.5,0.6-5.7-0.6-8c-3.5-6.4-8.6-11.9-15-13.8c-6.4-1.9-14.7-1.3-20.2,3.2
						C1088.1,581.5,1086,583.3,1085.8,585.6z"/>
				</g>
				<g>
					<path class="st20" d="M1020.6,774.8c-0.9,2.1-1.6,6.5-2,8.3c-2.2,10.6-6.6,24.2-14.6,33.2c-2.9,3.3-2.8,8.2,0.4,11
						c3.2,2.7,8.1,2.3,11-1c1.1-1.3,1.8-2.8,2-4.3c1-7.5,4.6-15.4,8.6-22.7c1.2-2.3,7.6-12.2,10.7-16.9c3-4.6,1.5-11.2-3.7-13.4
						C1027,766.2,1022.9,769.5,1020.6,774.8z"/>
					<path class="st20" d="M1028.6,832.9c0.2-2.2-1.7-4.5-3.1-6c-3.2-3.6-7.7-5.9-11.9-7.9c-5.7-2.6-12.3-4.5-18.6-3.7
						c-2.8,0.3-5,1.6-6.2,4.3c-1.1,2.5-0.6,5.7,0.7,8c3.5,6.4,8.6,11.9,15,13.8c6.4,1.9,14.7,1.3,20.2-3.2
						C1026.3,837,1028.4,835.2,1028.6,832.9z"/>
				</g>
				<path class="st20" d="M1026.5,635.5c-40.8,16.9-60.1,63.7-43.1,104.5c16.9,40.8,63.7,60.1,104.5,43.1
					c40.8-16.9,60.1-63.7,43.1-104.5C1114.1,637.8,1067.3,618.5,1026.5,635.5z"/>
				<path class="st21" d="M1081.4,632.8c3.9,6.8,3,16.2-2.6,21.6c-5.1,5-12.9,6-20.1,5.4c-6.9-0.6-15.1-2.6-20.9-6.5
					c-7.8-5.3-9.3-14.2-4.3-21.9C1043.4,616.3,1072.3,617,1081.4,632.8z"/>
				<path class="st21" d="M1013,755.3c-1.3,3.3-4,6-8.4,7.7c-8.9,3.5-21-3.4-25.1-11.4c-3.9-7.5-1.6-18.1,5.7-22.2
					C1001.4,720.3,1018.5,741.9,1013,755.3z"/>
				<path class="st21" d="M1134,668c-0.9,3.4-3.2,6.5-7.4,8.8c-8.4,4.6-21.3-0.7-26.4-8.1c-4.8-7-3.9-17.7,2.9-22.7
					C1118.2,634.8,1137.8,654,1134,668z"/>
				<path class="st21" d="M1077.6,748.7c-2.6,0-5.1-0.7-7.5-1.8c-17.3-7.7-4.9-32.6,11.6-29.4C1099.9,721.1,1095.9,749,1077.6,748.7
					z"/>
				<path class="st21" d="M1083,778.4c0.1,0.8,0.1,1.6,0,2.5c-0.6,14.8-24.7,19.6-36.7,14.8c-13.4-5.3-17.9-29.2,8.9-33.7
					C1067.8,759.9,1082.1,764.5,1083,778.4z"/>
				<path class="st21" d="M1004.3,675.3c-2.6,7.4-7.1,14.4-11.8,17.2c-4.2,2.5-9.5,3.4-14,1.4c-5.5-2.4-8.7-8.7-8.6-14.7
					c0-6,2.7-11.7,6.2-16.6c3.8-5.4,9.1-10.3,15.6-11.4C1007.4,648.6,1008.7,662.7,1004.3,675.3z"/>
				<path class="st21" d="M1030.3,686.1c5.9-3.1,12.8-4.7,17.4-3.7c4,0.9,7.8,3.5,9.5,7.3c2,4.7,0.2,10.4-3.3,14.1
					c-3.6,3.7-8.6,5.6-13.6,6.6c-5.5,1.1-11.7,1-16.3-2.1C1012.8,700.8,1020.2,691.3,1030.3,686.1z"/>
				<path class="st21" d="M1111.8,727.4c-0.1-8.1,1.9-16.3,5.5-20.7c3.2-3.9,8-6.5,13-6.2c6.2,0.4,11.4,5.4,13.4,11.2
					c2,5.8,1.4,12.3-0.2,18.2c-1.8,6.5-5.2,13.1-11.1,16.4C1118.1,754.2,1112,741.1,1111.8,727.4z"/>
			</g>
		</g>
	</g>
	<g>
		<g>
			<path class="st6" d="M1352.3,961.3c-20.7-24.7-47.6-56.5-48.8-56.6c3.7-14.5,12.5-26.5,25.2-29.8c16.5,14.6,40.1,34.8,60,53.1
				C1376.7,939.5,1363.9,950.4,1352.3,961.3z"/>
			<path class="st6" d="M1333.2,880.2c1.1,3.1,2.5,5.9,2,9.3c-2,12.7-15.7,22.9-31.5,18.6c-10.4-2.8-25.5-12-35.8-16.8
				c-3.8-1.8-9.5-6.2-11.1-10.3c-2.1-5.3,5.2-12.6,22.7,1.9c-21-21.1-34.7-32.3-28.3-37.6c6-5,25.2,12.1,39,19.4
				c-10.7-12.3-30.5-30.4-24.1-34.2c9.5-5.6,28.9,12.5,41.6,26.4c-3.4-3.7-6.5-8.9-9.6-13.1c-2.3-3.1-4.5-7.8-1.7-11.5
				c2.6-3.5,8-2.5,10.9,0c4,3.4,7.2,9,10,13.4c3,4.7,5.7,9.7,8,14.7C1328.4,866.9,1330.9,873.5,1333.2,880.2z"/>
		</g>
		<path class="st15" d="M1657.4,764.7c-22.4-8.1-47.2,3.4-55.3,25.9l-0.1,0.3c-12.6,34.6-27.7,69.8-44.3,102.9
			c-8.4,16.5-17.2,32.7-26.8,47.6c-4.8,7.4-9.7,14.6-14.7,21.1c-5,6.5-10.2,12.4-15,16.7c-4.9,4.4-8.2,6.4-11,7.5
			c-2.8,1-5.8,1.5-10.7,0.5c-4.8-1-11.1-3.5-17.6-7.3c-6.5-3.7-13.4-8.5-20.2-13.9c-13.8-10.8-70.6-64.3-87.3-77.7
			c-1.1-0.9-2.2-1.5-3.4-2.2c-12.9,14.3-24.9,29.4-36.4,44.9c0.6,0.6,1.1,1.2,1.7,1.8l0.2,0.2c13,11.9,66.5,69.2,82.5,83.6
			c8.1,7.2,16.7,14.3,26.7,21c10,6.6,21.4,12.9,35.4,17.1c7,2.1,14.7,3.5,22.7,3.9c8,0.3,16.5-0.4,24.5-2.4c8-1.9,15.6-5,22.3-8.6
			c6.6-3.7,12.6-7.8,17.6-11.8c10.2-8.2,18.3-16.7,25.8-25.2c7.4-8.5,14-17.2,20.3-25.9c12.5-17.4,23.3-35,33.6-52.7
			c20.4-35.7,38.1-71.5,54.4-109.5c0.3-0.7,0.6-1.5,0.9-2.2C1691.4,797.6,1679.8,772.9,1657.4,764.7z"/>
		<path class="st22" d="M2079.8,571.5c0-0.1-0.1-0.2-0.1-0.3c0-0.1-0.1-0.2-0.2-0.3c-0.1-0.7-0.2-1.3-0.3-1.9
			c-9.8-53.2-38.5-106.8-22.7-158.5c0.1,15.5,12.1,30.1,27.2,33.3c-18.3-46.8-0.7-100-8.4-149.7c-8.1-52.1-46.4-98.5-96.1-116.2
			c-35.5-12.6-105.1-1-136.8,22.6c-11.1,8.3-1.5,25.2,13.4,32.6c7.3,3.6,21.7-2.6,29-3.9c34.1-6.3,69.7,15.7,57.2,54.1
			c-15.6,47.9-22.5,98.4-21.9,148.7c0.3,24.5,3.6,48.2,6,72.4c2.5,24.6,3,49.6,9.9,73.5c4.8,16.7,12.8,31.8,16,49.2
			c3.5,19.2,3.7,38.9,0.4,58.1c-2.8,16.8-8.3,33.3-8.9,50.4c5.7-4.7,11.1-9.8,15.9-15.4c-5.5,6.4-5.1,24.6-5,32.6
			c0.1,10.5,2.7,21.3,5.7,31.3c4.3,14.4,14.2,27.8,28.2,33.4c14,5.6,32.1,1.6,40.1-11.2c-13.4-2.4-19.6-19.1-17.4-32.5
			c2.3-14.5,9.1-33.6,15.9-46.5c15.2-28.9,38.8-53.5,49.3-84.4c0.5-1.5,0.9-3.1,1.3-4.6c-0.6,7-1.7,13.9-3.3,20.7
			c-1.7,7-3.9,13.8-7,20.2c-3.1,6.4-7,12.6-10.8,18.9c-3.9,6.3-7.5,13-9.7,20.2c-2.3,7.2-3,14.7-2.8,22.1c0,0.4,0.4,0.8,0.8,0.8
			c0.5,0,0.8-0.4,0.8-0.8c0.3-7.2,1.3-14.5,3.9-21.2c2.5-6.7,6.3-12.9,10.4-18.9c4.1-6,8.5-12.1,12.1-18.7
			c3.7-6.6,6.4-13.7,8.6-20.9c4.3-14.4,6.3-29.5,6.1-44.6C2086.3,601.2,2084.1,586.1,2079.8,571.5z"/>
		<g>
			<g>
				<g>
					<path class="st5" d="M1520.3,1954.9c1.8,19,31.7,21.4,77,14.3c66.2-10.4,68.2-1.5,72.4-42.7c0-20.8-3.1-22.5-22-23.1
						c-16.9-0.6-28.3-3.4-54,7.4C1553.3,1926,1517.9,1929.1,1520.3,1954.9z"/>
					<path class="st23" d="M1520.5,1948.7c2.8,16.5,30.1,16.9,76,11.7c21.6-2.5,41.3-3.9,64.5-9.4c3.3-0.8,5.6-1.1,6.8-4.3
						c6-16.4,4.4-49.8,3.1-50.9c-3-2.6-7.5-2.1-11.5-1.8c-14.6,1.2-29.3-1.5-43.8-3.3c-1.2-0.2-2.5-0.3-3.6,0.1
						c-1.3,0.4-2.3,1.5-3.3,2.5c-16.3,17-39,22.4-59.8,31.4C1540.5,1928.3,1518.3,1936.1,1520.5,1948.7z"/>
				</g>
			</g>
		</g>
		<g>
			<g>
				<g>
					<path class="st5" d="M1749.4,1966.2c4.5,18.6,34.4,16.6,78.2,3.1c64.1-19.8,67.3-11.3,65.5-52.7c-3-20.6-6.3-21.8-25.1-19.7
						c-16.9,1.9-28.5,0.7-52.3,15C1777.9,1932.8,1743.2,1941,1749.4,1966.2z"/>
					<path class="st23" d="M1748.6,1959.9c5.2,15.9,32.2,12.5,76.9,0.7c21.1-5.6,40.4-9.8,62.5-18.6c3.1-1.2,5.4-1.9,6.1-5.3
						c3.6-17.1-2.8-49.9-4.3-50.8c-3.4-2.1-7.7-1-11.6-0.1c-14.3,3.3-29.2,2.7-43.8,3c-1.2,0-2.5,0.1-3.6,0.6
						c-1.3,0.6-2.1,1.8-2.9,3c-13.7,19.2-35.3,27.7-54.7,39.7C1765.5,1936.9,1744.6,1947.8,1748.6,1959.9z"/>
				</g>
			</g>
		</g>
		<path class="st8" d="M1679,1905.6c-23.8-1.3-56.4-3.3-77-9.2c7.1-23.9,8.4-52.4,7.9-75.9c-0.4-24.6-1.4-49.2-2.9-73.7
			c-3.1-49-8-97.8-15.8-145.6l-0.3-2.3l-0.4-3.1c-0.2-2-0.5-4.3-0.7-6.2c-0.4-3.9-0.7-7.9-0.8-11.6c-0.4-7.6-0.6-14.7-0.6-21.8
			c0-14,0.4-27.5,1.1-40.8c1.5-26.6,3.6-52.5,6.4-78.2c2.8-25.6,5.9-51,9.1-76.2l10.2-74.7c0.1-1,0.3-2.2,0.5-3.2
			c6.5-34.1,39.4-56.5,73.5-50c34.1,6.5,56.5,39.4,50.1,73.5l0,0.2c-4.8,25.2-10,49.8-14.9,74.3c-5.1,24.5-10,48.8-14.6,73
			c-4.4,24.2-9,48.2-12.3,71.7c-3.3,23.4-6,46.9-5.2,65c2.4,52.5,2.1,104.4-1,156.1c-1.6,25.9-3.8,51.6-6.7,77.3
			C1681.4,1849.9,1680.1,1884.7,1679,1905.6z"/>
		<path class="st8" d="M1797.5,1221.1c37.6,1.5,66.9,33.3,65.4,70.9l0,0.2c-1.1,26.5-2.8,51.8-4.3,77c-1.6,25.2-3.1,50.1-4.3,74.7
			c-1.2,24.6-2.1,49.1-2.1,72.8c0,23.4,0.9,47.2,4.3,64c11.5,51.3,19.9,102.6,26,154.1c6,51.5,15,156.9,14.8,158.2
			c-21.3,5.8-52.7,6.3-72.4,1c-0.1-0.3-12.2-96.8-23.9-144.6c-11.8-47.8-25.7-94.9-42.1-140.5c-0.4-1.2-1.1-3.4-1.8-5.5
			c-0.6-2-1.3-4.2-1.8-6.1c-1.1-3.9-2.1-7.8-2.9-11.5c-1.8-7.5-3.1-14.6-4.4-21.6c-2.4-14-4.2-27.5-5.8-40.8
			c-3-26.6-5.1-52.6-6.7-78.4c-1.7-25.8-3-51.3-4.3-76.5c-1.3-25.2-2.5-50.3-4.3-74.2c-0.2-2.5-0.2-5.2-0.1-7.8
			C1728.1,1248.9,1759.9,1219.6,1797.5,1221.1z"/>
		<path class="st8" d="M1850.6,1357.7c-46.3,2.5-106.5,2.4-151.2,2.2c-33.6-0.1-115.4,36-103.7-38.7c3.4-21.6,9.9-87.7,19.7-109.3
			c12.9-28.6,32.6-15.6,54.6-16.6c41.8-1.9,73-3,114.7-0.3c16.7,1.1,53.5-5.8,67.6,6.1c14.4,12.2,17.1,29.8,18.3,50.6
			C1872.1,1281.5,1882.2,1356,1850.6,1357.7z"/>
		<path class="st22" d="M1966.6,460.3c-0.2-14.4-12.6-8.3-21.5-1.6c-13.9,10.4-21.6,26.7-29.5,41.6c-6.3,11.8-15.1,21.6-22.9,32.3
			c-0.1,0.6-0.2,1.2-0.4,1.8c-4.5,14.6-5.4,29.4-4.2,44.3c1.5-0.2,4.7-0.7,6.6-2.3c24.7-19.7,45.6-43,59-71.8
			C1959.1,492.8,1966.8,473.3,1966.6,460.3z"/>
		<path class="st6" d="M1613.7,1201.9c1.7,9.4,36.1,11.4,70.2,12.4c13.1,0.4,26.1,0.6,37.2,1c20.5,0.7,59.7-8.4,79.8-4.7
			c25.8,4.7,39.9,5.9,58.7,12.9c32.4,12,28-94.4,26.4-113.9c-3.8-44.1-5.4-72.7,1.6-157.1c2.8-33.2,6.4-46.5,6.4-79.8
			c0-25.4,17.2-74.9-9.5-92.1c-24.3-15.7-69.2-16.2-94.8-20.1c-8.2-1.2-18.4,0.1-28.2,0.3c-9.2,0.2-27-0.4-36.2,0
			c-38.8,1.8-66.1,2.2-87.6,11.2c-20.1,61.1-11,204.4-9.1,248.1c1.3,29.7,0.1,59.5-2,89.2
			C1625.6,1122.4,1610.7,1185.5,1613.7,1201.9z"/>
		<g>
			<path class="st6" d="M1980.3,471.1c0,21.9-21.1,38.2-39.1,41.3c-25,4.3-34.6-19.4-34.6-41.3c0-21.9,16.5-39.7,36.9-39.7
				C1963.8,431.4,1980.3,449.2,1980.3,471.1z"/>
			<path class="st24" d="M1932.3,449.8c8-4.2,16.5-3.4,23.4,1.6c4.7,3.4,9.1,10.2,8.8,21.7"/>
		</g>
		<path class="st6" d="M1736.8,203.9c-61.9,0-116.9,21.8-151.6,91.7c-24.2,48.7-38.5,137-38.5,189.7c0,89,40.7,126.3,100.6,165.5
			c7,4.5,14.2,7.9,20.8,12.2c12.6,8.2,26.3,13.7,32.9,28.2c4.6,10.1,6.9,21.3,6.7,32.4c-0.2,10.5-0.5,24.4-8.5,32.1
			c-3.6,3.5-22.2,9.1-21.3,14.9c2.4,16.7,30.5,34,59.6,34c29.1,0,67.8-20.5,63.1-36.7c-3.9-13.5-23.8-8.6-28.3-17.5
			c-9.4-18.4-3.1-48.9,7.1-65.7c8.6-14,22.7-19.1,35.8-27.6c2.5-1.6,5.1-2.9,7.6-4.5c61.7-38.5,103.9-76.9,103.9-167.5
			c0-58.6-17.7-153.7-46.9-205.7C1845.1,217.7,1793.9,203.9,1736.8,203.9z"/>
		<path class="st25" d="M1701.2,691.2c4.6,9.9,6.9,21.6,6.6,32.9c15.8,16.4,41.5,24,65.9,28.3c-0.4-0.6-0.9-1.2-1.2-1.9
			c-9.4-18.4-3.1-48.9,7.1-65.7c1.3-2.1,2.8-4,4.3-5.8c-13.4,2.9-39.8,8.5-57.5,6.3c-13.3-1.6-23.4-0.3-35-7
			C1695.3,681.8,1698.8,685.9,1701.2,691.2z"/>
		<path class="st22" d="M1932.3,283.6c-7.4-11.6-16.2-24.6-25.8-35.9c-4.7,11.5-10.4,22.7-19.5,31.6c-22,21.5-45,36.3-44.8,70.2
			c0.1,16.6,10,31.5,20.1,44.6c19.6,25.2,33.5,52.5,38.4,84.4c1,6.8,2.8,6.9,9.7,7.2c2.8,0.1,9.4-1.7,9.3-5.4
			c-0.8-16.6,2.2-38.9,7.1-43.4c15.1-10.3,33.2-4.3,42.6,6.1C1979.6,389.8,1949.8,311.1,1932.3,283.6z"/>
		<path class="st24" d="M1955.7,451.6c-1.5,7-6.9,14.2-13.8,20.5"/>
		<path class="st22" d="M1849.7,210.8c-39.6-14.3-77.2-18.9-119.1-15c-24,2.2-49.9,3-71.6,13.8c-25.8,10.2-48.4,27.2-66.5,48.3
			c-1.8,1.9-3.6,3.8-5.4,5.9c-33.7,39.4-45,98.4-55.1,149.3c5.3,2.4,27,8.7,32.5,5.9c1.1-0.5,1.9-1.5,2.5-2.5
			c8.1-16.4,14.9-39.7,25.3-48.9c-3.1,9.7-4.6,38.8-5.2,49c-0.4,7.3-1.8,5.8,3.9,9c3.5,1.9,10.1,1.7,14.1,2.2
			c20.8,2.9,41.8,3.7,62.7,3.5c16.3-0.2,32.6-1,49-1.2c11.8-0.2,36.1,0.9,48.3-2.2c7.3-1.8,1-20.8,6.9-28.7
			c6.3,6.3,10.5,19,18.6,23.1c7.1,3.6,11,1.8,18.7,0.3c11.3-2.2,30.8-8.3,41,0c8.6,7,30,66.8,34.7,76.4c5.9-28.9-7.4-97.8,2.8-125.2
			c7.2-19.5,25.8-44.4,25.8-65.7C1932.3,254.7,1892.3,226.2,1849.7,210.8z"/>
		<g>
			<path class="st26" d="M1664.4,1214.9c-7.1,22.9-33.8,42.8-58.9,39.9"/>
			<path class="st27" d="M1671.2,1214.9c-6.1,32.1-40.6,53.3-68.7,46"/>
		</g>
		<g>
			<g>
				<path class="st28" d="M1772.7,1214.7c9.2,42.8,59.9,73.6,94.3,63.4"/>
			</g>
			<path class="st29" d="M1780.1,1214.7c9.7,30.1,50.9,61.6,82.4,55.5"/>
		</g>
		<path class="st15" d="M1843.3,508c9.2,31.4,28.2,70.7,51,88.1c-0.4-0.5-13.5,18.2-15,20.6c-3.7,6.1-9.7,12.7-15,17.4
			c-22.1,19.4-48.2,36.5-77.2,44.2c-35,9.3-77,10.7-111.7-3.3c-30.9-12.5-54.3-24.7-79.9-51c-21.8-22.3-45.8-65.6-47.5-100.5
			c25.8,10.1,43.3,19.6,70.4,25.2c33.4,6.9,65.7,7.2,99.9,6.1c24.5-0.8,50.8-8.4,72.5-17.9C1810.5,528.3,1828.8,518.7,1843.3,508z"
			/>
		<path class="st30" d="M1926.9,436.9c-32.6,32.1-51.2,51.2-84.2,76.5"/>
		<path class="st30" d="M1937.2,513.5c-11.4,28.4-21.3,47.6-37.9,73.3c-3.9,6.1-12.3,20.4-18.1,24.9"/>
		<path class="st23" d="M1626.5,1109.3c2.1-29.7,3.3-59.4,2-89.2c-1.5-34.5-2.2-64.1-4.2-98.7c-1.6-28.3-2.5-61.5-4.6-89.8
			c-1.3-17.5-5-43-1.6-60.2c0.4-1.8,0.8-3.7,2.2-5c1-1,2.5-1.5,3.8-1.9c21.5-6.8,49.3-9.2,71.6-15c8.9-2.3,35.3,49.1,47.9,48.5
			c12.6-0.5,36.4-46.7,42-46.2c25.8,2.8,80.5,14.1,100.8,27.2c26.7,17.2,7.3,68.3,7.3,93.7c0,33.3-3.6,46.7-6.4,79.8
			c-7,84.4-5.4,112.9-1.6,157.1c1.7,19.4,6.1,125.9-26.4,113.9c-18.8-7-32.9-8.2-58.7-12.9c-3.4-0.6-7.3-0.9-11.6-0.9
			c-1.2,0.7-2.7,1-4.1,1.3c-33.6,6.6-68.2,7.7-102.1,3.3c-11.4-1.5-66.5,3.5-69.4-12.4C1610.7,1185.5,1625.6,1122.4,1626.5,1109.3z"
			/>
		<path class="st15" d="M1759.2,968c-2.2-47.3,7.6-58.2,31.3-114.3c13.8-32.7,29.6-65.9,38.1-100.5c19.5,2.1,44.1,9.1,59,15.9
			c28.9,13.2,11.8,78.9,11.8,104.3c0,33.3-9.1,46-11.8,79.2c-7,84.4-4.3,136.7-0.5,180.8c7.2,83.8,3.4,147.5,5.7,230.9
			c1.8,65.5,7.6,130.9,13.4,196.2c0.9,10.5,12.5,61.7,3.5,69.1c-8.1,6.6-54-12.3-63.8-15.4c-21-6.5-41.6-13.9-61.9-22.3
			c-4.7-2-9.8-4.3-12.3-8.7c-2.3-4-2-8.8-1.8-13.4C1776.5,1453,1761.4,1015.1,1759.2,968z"/>
		<path class="st15" d="M1726.4,1125.7c2.8-45.3,1.5-109.3,0-154.8c-1.3-38.2,4.2-68.6-5.3-108.7c-8.1-34.5-31.8-81.3-39.9-115.9
			c-19.6,1.9-44.2,8.6-59.2,15.2c-29.1,12.8-12.7,78.8-13,104.2c-0.4,33.3,8.5,46.1,10.9,79.3c4.8,66.7,7.6,136.1-7.2,201.7
			c-19.9,88.4-33.2,178.1-44.4,268c-3.8,30.6-21.3,153.4-20.3,168.8c40.9,7.2,82.2,14.4,123.8,13.5c6.8-0.1,13.9-0.6,19.8-3.9
			c15.4-8.6,11.8-39.6,12.9-54.2c1.7-23.6,3.3-47.2,4.8-70.8c4.6-72.7,13-144.1,15.2-217C1725.9,1209.4,1724,1167.3,1726.4,1125.7z"
			/>
		<path class="st31" d="M1766.4,939.6c5.9-5.8,11.7-11.7,17.6-17.1c21-19.4,36.6-28.1,58.5-47.4c-10.6-3.5-26.3-10.8-37.2-13.1
			c7.7-3.2,33.8-5.8,43.9-12.3c1.3-0.8-9.2-55.6-17.3-90.6"/>
		<path class="st31" d="M1661.4,765.2c-5.4,28.9-4.8,57.9-9.3,90.6c9.8-0.2,21.7,1.5,31.5,2.5c-9.5,7.3-13.9,7.3-30.3,16.7
			c22.1,18.4,43.4,37.5,64.3,57"/>
		<path class="st10" d="M1964.4,1158.1c-68-37.8-134.9-76.6-205.6-108.2c-7.9,17.8-55.5,111.1-61.1,133.3
			c-0.5,1.8,87.5,46.2,94.7,49.8c34.3,17.1,68.9,33.4,103.9,49c1.7,0.7,3.5,1.5,5.2,0.9c1.6-0.6,2.6-2.4,3.4-4
			c17.1-33.8,34-67.7,50.5-101.9L1964.4,1158.1z"/>
		<g>
			<path class="st6" d="M1895.9,1164.7c-25.7,19.4-58.9,44.6-59,45.8c-14.3-4.4-25.9-13.9-28.4-26.7c15.4-15.8,36.8-38.3,56.1-57.2
				C1875.4,1139.2,1885.5,1152.5,1895.9,1164.7z"/>
			<path class="st6" d="M1835.6,1235.4c3.4-7.3,6.9-22,3.8-29.4c-5.3-12.5-17.9-22.2-32-24.7c-10.8-1.9-22.8,5.6-31.5,11.2
				c-3.5,2.3-8,4.3-11.6,6.7c-18.9,12.6-10.6,33.9,6.1,20.3c-13.2,9.9-5.2,17.9,0.1,21.7c4.8,3.4,9.8,1.3,12.3-1.1
				c-2.5,4.1-2.2,9.7,4.3,13.4c9.9,5.5,14.3,0.6,17.5-8.8c-4.2,8.1-3.8,11.2-0.2,13.8C1809.6,1262.2,1824.6,1259.5,1835.6,1235.4z"
				/>
		</g>
		<path class="st15" d="M1814.5,1160.2c23.6-17.1,45.6-35.1,63.7-54.9c11.5-12.6,21.2-25.9,27.5-39.5c6.3-13.2,9.9-28,8.7-38.1
			c-0.4-6.5-1.8-14.3-3.7-22.3c-1.9-8-4.4-16.3-7.2-24.6c-5.6-16.7-12.6-33.6-20.1-50.4c-3.1-6.8-6.3-13.7-9.7-20.5
			c0.9-19.1,5.2-130.8,5.5-142.1c11.4,2.9,21.7,10.3,27.6,21.5c19.1,36.2,35.6,72.3,50.5,110.3c7.3,19,14.1,38.4,19.7,58.8
			c2.8,10.2,5.4,20.7,7.4,31.6c2,11,3.5,22.5,3.7,35.3c0,3.3,0,6.4-0.3,10l-0.4,5.2l-0.8,5.5c-0.5,4-1.3,6.5-2,9.7
			c-0.7,3.1-1.6,6.1-2.5,9.1c-3.7,11.9-8.7,23.2-14.6,33.6c-11.7,20.8-26.6,38-42.2,53.1c-23.7,22.6-49.2,40.7-74.9,56.9
			C1838.1,1192.8,1825.1,1177.3,1814.5,1160.2z"/>
	</g>
</g>
</svg>
